<?xml version="1.0" encoding="UTF-8"?>
<svg xmlns="http://www.w3.org/2000/svg" viewBox="0 0 165.9 165.9">
  <defs>
    <style>
      .cls-1 {
        fill: transparent;
      }
      .cls-2 {
        fill: #fff;
      }
    </style>
  </defs>
  <!-- Beyaz arka plan -->
  <rect class="cls-1" width="165.9" height="165.9" rx="14.17" ry="14.17"/>
  <rect class="cls-2" x="21" y="21" width="125" height="125" rx="0" ry="0"/>

  <!-- İkinci şeklin tam ortalanmış hali -->
  <g transform="translate(19.95,19.95) scale(0.67)">
    <g transform="translate(0, 192) scale(0.1, -0.1)" fill="#EF2D5E" stroke="none">
      <path d="M0 960 l0 -960 960 0 960 0 0 960 0 960 -960 0 -960 0 0 -960z m1249 18 c129 -387 236 -709 239 -715 3 -10 -14 -13 -66 -13 l-69 0 -62 190 -62 190 -299 0 -299 0 -61 -190 -61 -190 -65 0 c-35 0 -64 3 -64 7 0 5 106 326 236 715 l236 708 81 0 82 0 234 -702z"/>
      <path d="M826 1235 c-59 -181 -117 -359 -128 -395 -12 -36 -23 -71 -26 -77 -3 -10 52 -13 257 -13 144 0 261 2 261 4 0 4 -241 765 -254 801 -1 6 -51 -138 -110 -320z"/>
    </g>
  </g>
</svg>
