<?xml version="1.0" encoding="UTF-8"?>
<svg id="Layer_2" data-name="Layer 2" xmlns="http://www.w3.org/2000/svg" viewBox="0 0 165.9 165.9">
  <defs>
    <style>
      .cls-1 {
        fill: #EEEEEE;
      }

      .cls-1, .cls-2, .cls-3, .cls-4, .cls-5, .cls-6, .cls-7, .cls-8, .cls-9, .cls-10 {
        stroke-width: 0px;
      }

      .cls-2 {
        fill: transparent;
      }

      .cls-3 {
        fill: #EEEEEE;
      }

      .cls-4 {
        fill: #EEEEEE;
      }

      .cls-5 {
        fill: #EEEEEE;
      }

      .cls-6 {
        fill: #EEEEEE;
      }

      .cls-7 {
        fill: #EEEEEE;
      }

      .cls-8 {
        fill: #e53d63;
      }

      .cls-9 {
        fill: #EEEEEE;
      }

      .cls-10 {
        fill: #EEEEEE;
      }
    </style>
  </defs>
  <g id="Layer_1-2" data-name="Layer 1">
    <g>
      <rect class="cls-2" width="165.9" height="165.9" rx="14.17" ry="14.17"/>
      <g>
        <g>
          <path class="cls-8" d="M27.21,66.02c1.06.3,2.15.54,3.19.9,7.51,2.61,12,9.79,11.29,18-.64,7.45-6.56,13.72-14.13,14.98l-5.37-.08c-7.14-1.64-11.51-6.07-13.3-13.14-.09-.34.05-.8-.38-1.03v-5.14c.43-.32.32-.84.43-1.26,1.78-6.84,6.03-11.17,12.9-12.9M33.28,85.72c.28.1.44.13.57.2,1.06.58,1.44,1.66.96,2.66-.47.97-1.62,1.35-2.57.85-.99-.53-1.3-1.58-.77-2.71.17-.35.39-.67.54-1.03,1.47-3.46,1.14-6.74-1.28-9.62-2.28-2.71-5.28-3.64-8.73-2.78-4.57,1.13-7.2,5.66-6.27,10.62,1.15,6.13,7.12,10.22,13.16,8.98,2.15-.44,3.97-1.5,5.6-2.96,1.29-1.16,2.71-.74,3.27.88.06.18.06.39.32.4,1.05-1.45.71-2.89-.93-3.41-.59-.19-.53-.5-.6-.91-.26-1.58-1.75-2.17-3.28-1.18Z"/>
          <path class="cls-6" d="M158.58,76.07c.01.18.02.23.01.26q-.76,2.74-3.61,2.74c-2.06,0-4.13,0-6.19,0-1.19,0-1.88.55-1.79,1.47.1,1.06.78,1.41,1.78,1.39,1.75-.03,3.5-.02,5.26,0,2.71.03,4.7,1.94,4.68,4.47-.02,2.54-2.01,4.38-4.74,4.39-3.04,0-6.07-.02-9.11.02-.73.01-.9-.19-.9-.91.01-2.1-.02-2.1,2.06-2.1,2.61,0,5.22,0,7.83,0,1.24,0,1.87-.49,1.88-1.41,0-.92-.65-1.44-1.85-1.45-1.79,0-3.58.02-5.37,0-2.63-.04-4.51-1.94-4.49-4.5.02-2.5,1.9-4.35,4.49-4.36,3.35-.02,6.69,0,10.07,0Z"/>
          <path class="cls-7" d="M122.66,85.01c.93,1.93,1.82,3.78,2.8,5.78-1.06,0-1.97-.02-2.88,0-.48.02-.57-.33-.71-.63-.72-1.46-1.45-2.92-2.12-4.4-.27-.61-.6-.86-1.31-.86-3.18,0-3.21,0-3.21,3.15,0,.43-.05.86.01,1.28.17,1.14-.18,1.57-1.41,1.47-1.56-.13-1.57-.03-1.57-1.62,0-.97-.01-1.95.01-2.92.06-2.46,1.94-4.32,4.4-4.35,1.79-.03,3.58,0,5.37,0,1.34,0,1.95-.47,1.94-1.46-.01-.97-.61-1.4-1.99-1.4-2.88,0-5.76-.03-8.64.02-.83.01-1.16-.13-1.12-1.06.07-1.95,0-1.95,1.94-1.95,2.65,0,5.29,0,7.94,0,2.67,0,4.56,1.53,4.84,3.91.29,2.37-1.2,4.29-3.8,4.93-.11.03-.22.05-.49.11Z"/>
          <path class="cls-1" d="M79.65,76.08c0,.17,0,.22,0,.25q-.82,2.74-3.63,2.74c-2.1,0-4.2-.01-6.31,0-1.2,0-1.69.48-1.71,1.69-.03,1.79-.03,3.58,0,5.37.02,1.2.51,1.66,1.74,1.67,3.04.01,6.07.02,9.11,0,.72,0,.85.17.63.85-.71,2.14-.69,2.15-3.01,2.15-2.34,0-4.67.01-7.01,0-2.51-.02-4.36-1.8-4.42-4.3-.05-2.1-.05-4.21.02-6.31.07-2.16,1.88-4.04,4.04-4.08,3.5-.07,7-.02,10.55-.02Z"/>
          <path class="cls-10" d="M111.46,90.75q-3.1.16-4.09-2.59c-.36-1-.73-1.99-1.1-3.02-.16.12-.24.15-.27.2-.38.83-.35,2.06-1.14,2.44-.76.37-1.83.08-2.76.11-.53.02-1.09-.2-1.41.62-.99,2.48-1.03,2.47-3.91,2.23.41-1.15.81-2.26,1.22-3.38,1.25-3.46,2.51-6.92,3.72-10.39.22-.63.46-.91,1.19-.91,3.27,0,3.27-.03,4.37,3.03,1.39,3.86,2.77,7.72,4.18,11.66ZM104.11,79.07c-.71,1.98-1.32,3.64-1.91,5.3-.19.54.14.56.53.56,1.12-.01,2.25,0,3.47,0-.67-1.88-1.32-3.69-2.09-5.85Z"/>
          <path class="cls-9" d="M63.36,88.01c0,.12.04.21.02.28q-.79,2.51-3.44,2.51c-2.22,0-4.44.01-6.66,0-2.7-.02-4.51-1.83-4.54-4.55-.01-1.09.02-2.18-.01-3.27-.02-.57.19-.74.74-.74,4.44.01,8.88.02,13.31,0,.68,0,.64.22.46.75-.73,2.17-.71,2.18-2.99,2.18-2.41,0-4.83-.02-7.24.02-.42,0-1.13-.4-1.24.37-.12.83-.2,1.74.8,2.23.41.2.83.18,1.26.18,2.96,0,5.92,0,8.88,0,.22,0,.45.03.67.05Z"/>
          <path class="cls-5" d="M143.21,76.07c-.33.93-.62,1.72-.88,2.52-.16.49-.52.48-.92.48-1.01-.01-2.03.06-3.03-.02-.92-.08-1.08.28-1.07,1.12.05,3.23,0,6.46.04,9.69.01.77-.21.97-.97.96-2-.03-2,0-2-2.01,0-2.88-.03-5.76.02-8.64.01-.83-.14-1.18-1.07-1.12-1.36.09-2.72,0-4.08.03-.62.02-.78-.21-.8-.81-.08-2.2-.1-2.2,2.06-2.2,3.81,0,7.63,0,11.44,0,.38,0,.75,0,1.27,0Z"/>
          <path class="cls-5" d="M92.83,82.39c-.41,2.44-2.01,2.84-4.17,2.58-1.42-.18-2.88,0-4.32-.05-.61-.02-.81.18-.79.79.04,1.4-.03,2.81.03,4.21.03.75-.22.89-.92.89-2.18-.01-2.18.02-2.18-2.17,0-3.86.03-7.71-.02-11.57-.01-.83.21-1.04,1.03-1.02,2.07.05,2.08,0,2.08,2.06,0,.97.05,1.95-.01,2.92-.04.71.17.94.9.93,2.8-.05,5.61-.03,8.41-.04.26.18.22.34-.03.48Z"/>
          <path class="cls-3" d="M92.83,82.39c.25-.14.29-.3.03-.48.02-1.87.04-3.74.05-5.61.06-.06.12-.12.18-.18.86,0,1.72,0,2.58,0,.08.06.17.13.25.19.02,4.62.04,9.25.08,13.87,0,.55-.23.65-.7.62-.74-.04-1.47-.03-2.21-.05-.06-.06-.12-.13-.18-.19-.03-2.72-.06-5.45-.08-8.17Z"/>
          <path class="cls-4" d="M63.48,76.07c-.32.94-.62,1.77-.88,2.61-.13.41-.38.51-.78.51-4.12,0-8.24-.01-12.36,0-.54,0-.72-.15-.75-.72-.11-2.4-.13-2.4,2.2-2.4h12.57Z"/>
          <path class="cls-5" d="M93.1,76.12c-.06.06-.12.12-.18.18-.04-.16.02-.22.18-.18Z"/>
          <path class="cls-5" d="M95.93,76.3c-.08-.06-.17-.13-.25-.19.15-.02.28-.02.25.19Z"/>
          <path class="cls-5" d="M92.92,90.56c.06.06.12.13.18.19-.16.03-.22-.03-.18-.19Z"/>
        </g>
        <path class="cls-8" d="M25.12,74.64c4.92,0,8.93,3.73,8.93,8.31s-4.01,8.31-8.93,8.31-8.93-3.73-8.93-8.31,4.01-8.31,8.93-8.31M25.12,65.64c-9.9,0-17.93,7.75-17.93,17.31s8.03,17.31,17.93,17.31,17.93-7.75,17.93-17.31-8.03-17.31-17.93-17.31h0Z"/>
      </g>
    </g>
  </g>
</svg>