<?xml version="1.0" encoding="UTF-8"?>
<svg id="Layer_2" data-name="Layer 2" xmlns="http://www.w3.org/2000/svg" xmlns:xlink="http://www.w3.org/1999/xlink" viewBox="0 0 165.9 165.9">
  <defs>
    <style>
      .cls-1 {
        fill: url(#linear-gradient);
      }

      .cls-1, .cls-2 {
        stroke-width: 0px;
      }

      .cls-2 {
        fill: transparent;
      }

      .cls-3 {
        fill: url(#linear-gradient-2);
        stroke: #fff;
      }
    </style>
    <linearGradient id="linear-gradient" x1="31.34" y1="2453.97" x2="144.28" y2="2364.31" gradientTransform="translate(0 2495.95) scale(1 -1)" gradientUnits="userSpaceOnUse">
      <stop offset="0" stop-color="#7553a2"/>
      <stop offset="1" stop-color="#5f51a2"/>
    </linearGradient>
    <linearGradient id="linear-gradient-2" x1="66.07" y1="2436.14" x2="91.32" y2="2393.45" gradientTransform="translate(0 2495.95) scale(1 -1)" gradientUnits="userSpaceOnUse">
      <stop offset="0" stop-color="#fff"/>
      <stop offset="1" stop-color="#f0e4f0"/>
    </linearGradient>
  </defs>
  <g id="Layer_1-2" data-name="Layer 1">
    <g>
      <rect class="cls-2" width="165.9" height="165.9" rx="14.17" ry="14.17"/>
      <g>
        <path class="cls-1" d="M32.58,44.91c-.24-7,5.21-13.46,12.59-13.46h75.57c7.38,0,12.83,6.46,12.59,13.46-.23,6.73.07,15.44,2.26,22.55,2.2,7.13,5.91,11.63,11.99,12.21v6.56c-6.08.58-9.79,5.08-11.99,12.21-2.19,7.11-2.5,15.82-2.26,22.55.24,7-5.21,13.46-12.59,13.46H45.17c-7.38,0-12.83-6.46-12.59-13.46.23-6.73-.07-15.44-2.26-22.55-2.2-7.13-5.92-11.63-12-12.21v-6.56c6.08-.58,9.8-5.08,12-12.21,2.19-7.11,2.5-15.82,2.26-22.55Z"/>
        <path class="cls-3" d="M85.75,110.33c11.94,0,19.14-5.85,19.14-15.49,0-7.29-5.13-12.57-12.76-13.4v-.3c5.6-.91,10-6.11,10-11.92,0-8.28-6.53-13.67-16.49-13.67h-22.4v54.78h22.52ZM71.94,62.49h11.59c6.3,0,9.88,2.81,9.88,7.9,0,5.43-4.16,8.47-11.71,8.47h-9.76v-16.36ZM71.94,103.38v-18.03h11.51c8.25,0,12.52,3.04,12.52,8.96s-4.16,9.07-12.02,9.07h-12.02Z"/>
      </g>
    </g>
  </g>
</svg>