<?xml version="1.0" encoding="UTF-8"?>
<svg id="Layer_2" data-name="Layer 2" xmlns="http://www.w3.org/2000/svg" viewBox="0 0 165.9 165.9">
  <defs>
    <style>
      .cls-1 {
        fill: transparent;
      }

      .cls-1, .cls-2 {
        stroke-width: 0px;
      }

      .cls-2 {
        fill: #010101;
      }
    </style>
  </defs>
  <g id="Layer_1-2" data-name="Layer 1">
    <g>
      <rect class="cls-1" width="165.9" height="165.9" rx="14.17" ry="14.17"/>
      <g>
        <path class="cls-2" d="M31.93,49.18c-.2,1.21-1.57,17.27-1.57,18.25,0,.65.14.76,1.04.9.56.11,1.1.11,1.15.06.37-.37,4.52-19.38,4.27-19.6-.11-.14-1.24-.31-2.47-.39l-2.27-.17-.14.95Z"/>
        <path class="cls-2" d="M18.65,55.67c-.81.31-1.49.67-1.49.81,0,.22,5.56,12.64,5.76,12.83.22.22,2.11-.56,2.11-.87,0-.2-.84-3.29-1.88-6.85-2.13-7.36-1.83-6.94-4.49-5.92Z"/>
        <path class="cls-2" d="M38.28,56.65c-.7,1.74-4.27,11.91-4.27,12.16,0,.37,1.97.95,2.25.67.28-.31,6.18-11.74,6.18-11.99,0-.28-2.72-1.6-3.31-1.6-.34,0-.67.31-.84.76Z"/>
        <path class="cls-2" d="M25.56,60.05c-.39.17-.39.48.06,3.29.87,5.36.67,4.91,1.94,4.91.59,0,1.18-.14,1.26-.28.11-.17.08-2.05-.03-4.21l-.2-3.93-1.29.03c-.7,0-1.49.08-1.74.2Z"/>
        <path class="cls-2" d="M140.04,68.42c-2.64.95-4.38,3.43-4.38,6.21,0,3.57,1.85,5.53,7.16,7.53,2.7,1.01,3.51,1.66,3.51,2.78,0,1.46-.81,1.99-3.06,1.99-1.8-.03-2.86-.39-4.58-1.63-.45-.28-.73-.11-2.11,1.29-1.91,1.88-1.88,2.08.51,3.51,2.05,1.24,3.29,1.54,6.43,1.54,3.15.03,4.69-.56,6.32-2.36,1.29-1.46,1.54-2.13,1.54-4.35,0-3.68-1.52-5.36-6.66-7.27-1.04-.39-2.39-1.04-2.95-1.43-.87-.56-1.07-.84-1.07-1.63,0-1.12.7-1.83,2.05-2.05,1.43-.22,2.78.08,4.02.93l1.07.73,1.49-1.54c.81-.84,1.49-1.74,1.49-1.97,0-.53-1.8-1.71-3.48-2.27-1.66-.56-5.78-.56-7.3,0Z"/>
        <path class="cls-2" d="M127.71,68.44c-.11.08-.2,3.88-.2,8.37,0,7.81-.03,8.26-.56,8.93-1.26,1.57-3.45,1.57-5.11,0l-.81-.76-1.57,1.6-1.6,1.6,1.07,1.1c1.57,1.6,3.51,2.39,5.92,2.36,1.1,0,2.41-.2,2.98-.42,1.4-.62,2.95-2.05,3.85-3.57l.76-1.29.08-9.07.08-9.04h-2.36c-1.29,0-2.44.08-2.53.2Z"/>
        <path class="cls-2" d="M25.98,74.65c-2.05.7-3.54,2.02-4.63,4.04-.9,1.63-.95,1.94-.95,4.3,0,2.19.11,2.72.76,3.93.95,1.83,2.53,3.31,4.3,4.1,1.97.9,5.34.9,7.27.03,1.49-.67,3.26-1.91,3.26-2.27,0-.22-2.78-3.12-3-3.12-.06,0-.59.37-1.15.81-1.49,1.18-2.81,1.35-4.38.59-3.23-1.54-3.45-6.04-.42-8.09,1.32-.93,3.57-.76,4.69.31.45.42.93.76,1.07.76.39,0,2.92-2.61,2.92-3.03,0-.53-2.22-1.99-3.73-2.44-1.88-.56-4.21-.51-5.98.08Z"/>
        <path class="cls-2" d="M40.83,74.54c-1.29.42-2.92,1.35-3.48,2.02-.28.37-.14.65,1.01,1.8l1.35,1.38.87-.62c.59-.42,1.38-.65,2.56-.7,1.52-.11,1.83-.03,2.44.53.42.37.81.95.93,1.29.17.62.14.65-2.05.65-1.21,0-2.86.2-3.65.42-4.72,1.4-5.76,7.39-1.68,9.69,1.01.56,1.57.67,3.31.67,1.26-.03,2.53-.2,3.17-.48.56-.25,1.04-.34,1.04-.17,0,.14,1.01.25,2.25.25h2.25v-5.56c0-6.63-.25-7.83-1.99-9.58-1.85-1.85-5.36-2.5-8.31-1.6ZM46.65,85.52c0,1.12-.08,1.29-.9,1.71-1.1.56-3.34.67-3.96.14-.59-.48-.62-1.8-.08-2.25.62-.53,1.85-.81,3.48-.84l1.46-.03v1.26Z"/>
        <path class="cls-2" d="M60.38,74.4c-.39.14-.98.37-1.29.53-.48.25-.62.25-.76-.08-.11-.34-.67-.42-2.41-.42h-2.25v16.85h4.77v-6.01c0-4.46.08-6.07.37-6.29.73-.62,2.72-.95,3.71-.62,1.8.59,1.97,1.18,2.05,7.36l.11,5.56h4.49l-.11-6.26c-.11-6.99-.25-7.61-2.3-9.41-1.52-1.32-4.27-1.83-6.37-1.21Z"/>
        <path class="cls-2" d="M91.6,74.68c-1.57.56-2.75,1.29-3.23,2.08-.25.37-.06.7.93,1.71l1.24,1.26,1.18-.7c2.33-1.35,5.7-.56,5.76,1.35,0,.45-.28.51-2.05.51-2.67,0-4.72.62-6.07,1.85-1.43,1.26-1.8,2.27-1.66,4.32.17,2.25,1.18,3.57,3.34,4.32,1.32.45,1.77.48,3.59.2,1.15-.17,2.25-.45,2.47-.62.25-.22.37-.22.37,0,0,.2.81.31,2.41.31h2.41l-.11-5.98c-.11-6.43-.25-7.05-1.77-8.85-1.21-1.43-2.78-2.11-5.19-2.22-1.57-.08-2.5.03-3.62.45ZM97.47,85.66v1.38l-1.54.45c-2.44.73-4.18-.14-3.65-1.8.22-.73,1.97-1.4,3.73-1.4l1.46-.03v1.4Z"/>
        <path class="cls-2" d="M108.42,74.4c-2.47.76-3.93,2.39-4.16,4.52-.06.79.03,1.77.22,2.25.51,1.18,2.22,2.64,3.82,3.23,3.15,1.15,4.38,1.8,4.27,2.3-.25,1.4-3,1.43-4.58.06-.51-.45-1.04-.81-1.18-.81s-.81.56-1.49,1.26c-1.43,1.46-1.4,1.66.51,3.15,2.13,1.63,5.76,1.88,8.45.59,1.6-.79,2.84-2.67,2.84-4.35,0-2.75-1.66-4.24-6.8-6.09-1.57-.59-1.91-1.24-1.01-1.94.87-.73,2.72-.51,3.99.48.53.39,1.1.73,1.21.73.14,0,.81-.56,1.49-1.26l1.24-1.26-.95-.98c-1.66-1.71-5.39-2.58-7.86-1.85Z"/>
        <path class="cls-2" d="M70.51,74.85c0,.22,1.35,4.02,3,8.42l3,8h4.52l3.03-8.23c1.66-4.49,3-8.31,3-8.42s-1.1-.17-2.44-.14l-2.41.08-1.74,5.19-1.74,5.19-1.74-5.28-1.77-5.25h-2.36c-1.91,0-2.36.08-2.36.42Z"/>
        <path class="cls-2" d="M35.27,96.53c-.45.22-.9.48-.95.53-.14.11,3.93,11.12,4.21,11.46s3.62-1.21,3.62-1.63c-.03-.48-5.53-10.67-5.78-10.75-.14-.03-.62.14-1.1.39Z"/>
        <path class="cls-2" d="M22.05,98.21c-4.89,11.06-7.72,17.86-7.53,18.03.42.39,3.45,1.43,4.18,1.43.39,0,.73-.2.81-.51,1.38-4.58,5.5-19.26,5.5-19.54,0-.34-1.35-1.01-2.02-1.01-.11,0-.56.73-.95,1.6Z"/>
        <path class="cls-2" d="M31.26,97.65c-.81.11-.93.22-.81.73.08.34.42,3.82.79,7.72l.65,7.1.7-.14c.42-.08,1.35-.22,2.08-.34.76-.11,1.43-.34,1.49-.53.08-.2-.51-3.12-1.29-6.49-1.85-8.03-1.94-8.26-2.33-8.2-.2,0-.76.08-1.26.14Z"/>
        <path class="cls-2" d="M26.43,97.9c0,.11-.2,1.43-.45,2.98s-.39,2.84-.34,2.86c.06.06.81.17,1.71.28l1.6.17v-6.46h-1.26c-.7,0-1.26.08-1.26.17Z"/>
      </g>
    </g>
  </g>
</svg>