<?xml version="1.0" encoding="UTF-8"?>
<svg id="Layer_2" data-name="Layer 2" xmlns="http://www.w3.org/2000/svg" viewBox="0 0 165.9 165.9">
  <defs>
    <style>
      .cls-1 {
        fill: transparent;
      }

      .cls-1, .cls-2, .cls-3, .cls-4, .cls-5, .cls-6 {
        stroke-width: 0px;
      }

      .cls-2 {
        fill: #479fd8;
      }

      .cls-3 {
        fill: #f06184;
        isolation: isolate;
        opacity: .8;
      }

      .cls-4 {
        fill: #ffce58;
      }

      .cls-5 {
        fill: #e8e9ed;
      }

      .cls-6 {
        fill: #f16384;
      }
    </style>
  </defs>
  <g id="Layer_1-2" data-name="Layer 1">
    <g>
      <rect class="cls-1" width="165.9" height="165.9" rx="14.17" ry="14.17"/>
      <g>
        <g>
          <path class="cls-6" d="M49.56,120.1c.24.3.39.69.39,1.06,0,.94-.79,1.66-1.72,1.66-.45,0-.94-.18-1.3-.57-1.15-1.3-2.81-2.08-4.47-2.08-3.96,0-6.89,3.02-6.89,7.22s2.93,7.22,6.89,7.22c1.66,0,3.32-.73,4.47-2.05.36-.36.85-.57,1.33-.57.94,0,1.66.76,1.66,1.63,0,.36-.12.76-.36,1.06-1.54,1.75-3.81,3.14-7.1,3.14-5.95,0-10.57-4.23-10.57-10.42s4.62-10.42,10.57-10.42c3.29,0,5.56,1.39,7.1,3.14Z"/>
          <path class="cls-6" d="M64.82,137.63c-.91,0-1.6-.73-1.6-1.6v-7.73c0-2.24-1.18-2.93-2.96-2.93-1.57,0-2.96.94-3.69,1.93v8.73c0,.88-.73,1.6-1.63,1.6s-1.6-.73-1.6-1.6v-17.34c0-.85.69-1.57,1.66-1.57.85,0,1.57.73,1.57,1.57v6.16c.97-1.15,2.84-2.36,5.17-2.36,3.14,0,4.71,1.66,4.71,4.62v8.91c0,.88-.73,1.6-1.63,1.6Z"/>
          <path class="cls-6" d="M81.05,137.63h-.18c-.42,0-1.45-.36-1.45-1.48v-.27c-1.06,1.24-2.78,1.93-4.68,1.93-2.39,0-5.11-1.6-5.11-4.83s2.72-4.74,5.11-4.74c1.93,0,3.66.63,4.68,1.87v-2.24c0-1.66-1.39-2.69-3.38-2.69-1.27,0-2.42.33-3.47,1.12-.18.12-.42.21-.66.21-.6,0-1.27-.48-1.27-1.27,0-.24.09-.51.24-.69,1.15-1.45,3.84-2.05,5.68-2.05,3.23,0,6.1,1.36,6.1,5.29v8.25c0,.88-.73,1.6-1.6,1.6ZM79.41,131.92c-.73-.97-2.05-1.45-3.44-1.45-1.72,0-3.05.97-3.05,2.57s1.33,2.54,3.05,2.54c1.39,0,2.72-.48,3.44-1.48v-2.18Z"/>
          <path class="cls-6" d="M92.59,125.75c-1.3.12-2.54.66-3.32,1.78v8.49c0,.88-.73,1.6-1.6,1.6h-.06c-.88,0-1.57-.73-1.57-1.6v-11.78c0-.85.69-1.57,1.66-1.57.85,0,1.57.73,1.57,1.57v.76c.79-1.06,1.93-2.33,3.47-2.33.88,0,1.42.6,1.42,1.39,0,.97-.66,1.57-1.57,1.69Z"/>
          <path class="cls-6" d="M101.68,137.81c-2.48,0-3.78-1.33-3.78-3.78v-8.34h-1.21c-.76,0-1.39-.63-1.39-1.45,0-.76.63-1.39,1.39-1.39h1.21v-2.57c0-.88.73-1.6,1.66-1.6.88,0,1.57.73,1.57,1.6v2.57h1.78c.76,0,1.36.63,1.36,1.45,0,.76-.6,1.39-1.36,1.39h-1.78v7.52c0,1.12.63,1.72,1.39,1.72.21,0,.48-.09.66-.09.88,0,1.42.6,1.42,1.39,0,.97-.88,1.57-2.93,1.57Z"/>
          <path class="cls-6" d="M108.63,137.78c-1.18,0-2.15-1-2.15-2.15s.97-2.15,2.15-2.15,2.15.97,2.15,2.15-.97,2.15-2.15,2.15Z"/>
          <path class="cls-6" d="M113.98,143.37c-1.87,0-3.32-.48-3.32-1.66,0-.73.6-1.3,1.3-1.3.45,0,.79.3,1.51.3,1.24,0,2.15-.76,2.15-2.48v-13.99c0-.85.69-1.57,1.66-1.57.85,0,1.57.73,1.57,1.57v13.99c0,3.14-1.63,5.14-4.86,5.14ZM119.2,119.08c0,1.12-.91,1.99-1.99,1.99s-1.99-.88-1.99-1.99.91-1.96,1.99-1.96,1.99.88,1.99,1.96Z"/>
          <path class="cls-6" d="M127.93,137.81c-1.96,0-4.56-.6-5.71-1.9-.18-.21-.3-.48-.3-.79,0-.76.66-1.36,1.39-1.36.24,0,.51.06.73.21,1.12.76,2.63,1.3,4.02,1.3,1.9,0,2.84-.82,2.84-1.93,0-2.84-8.82-.79-8.82-6.41,0-2.39,2.08-4.44,5.8-4.44,1.96,0,4.17.6,5.17,1.75.18.21.27.45.27.73,0,.69-.6,1.24-1.3,1.24-.21,0-.45-.06-.66-.18-.94-.63-2.18-1.03-3.47-1.03-1.63,0-2.66.79-2.66,1.78,0,2.57,8.79.63,8.79,6.44,0,2.6-2.15,4.59-6.07,4.59Z"/>
        </g>
        <path class="cls-2" d="M117.32,65.99c-12.07.24-9.55,7.88-18.06,9.81-8.64,1.96-10-21.1-18.64-21.1s-10.55,22.4-21.37,37.78l-.31.44,23.19,13.39,35.19-20.31v-20h0Z"/>
        <path class="cls-4" d="M117.32,65.29c-4.04-5.18-6.78-11.15-12.68-11.15-10.43,0-7.69,17.02-19.22,17.02s-12.74-18.31-25.81-1.1c-4.16,5.48-7.51,11.6-10.14,17.38l32.66,18.85,35.19-20.31v-20.7h0Z"/>
        <path class="cls-3" d="M46.94,72.34c3.96-10.96,5.67-19.84,13.23-19.84,11.53,0,14.28,32.39,24.16,29.1,9.88-3.29,8.78-20.86,24.16-20.86,2.93,0,5.91,1.79,8.83,4.69v20.56l-35.19,20.31-35.19-20.31v-13.65h0Z"/>
        <path class="cls-5" d="M82.11,108.85l-37.38-21.58v-43.16l37.38-21.58,37.38,21.58v43.16l-37.38,21.58ZM49.11,84.74l32.99,19.04,32.99-19.04v-38.09l-32.99-19.04-32.99,19.04s0,38.09,0,38.09Z"/>
      </g>
    </g>
  </g>
</svg>