<?xml version="1.0" encoding="UTF-8"?>
<svg id="Layer_2" data-name="Layer 2" xmlns="http://www.w3.org/2000/svg" viewBox="0 0 165.9 165.9">
  <defs>
    <style>
      .cls-1 {
        fill: #9c5097;
      }

      .cls-1, .cls-2, .cls-3, .cls-4 {
        stroke-width: 0px;
      }

      .cls-2 {
        fill: transparent;
      }

      .cls-3 {
        fill: #682a7a;
      }

      .cls-4 {
        fill: #fff;
      }
    </style>
  </defs>
  <g id="Layer_1-2" data-name="Layer 1">
    <g>
      <rect class="cls-2" width="165.9" height="165.9" rx="14.17" ry="14.17"/>
      <g>
        <path class="cls-1" d="M128.98,53.15l-43.21-24.87c-.72-.45-1.7-.63-2.77-.63s-2.06.27-2.77.63l-42.95,24.96c-1.52.89-2.59,3.13-2.59,4.83v49.84c0,.98.18,2.15.89,3.13l95.56-55.47c-.54-1.07-1.34-1.88-2.15-2.42Z"/>
        <path class="cls-3" d="M35.3,110.95c.45.72,1.07,1.34,1.7,1.7l43.13,24.96c.72.45,1.7.63,2.77.63s2.06-.27,2.77-.63l42.95-24.96c1.52-.89,2.59-3.13,2.59-4.83v-49.84c0-.81-.09-1.7-.54-2.51,0,0-95.38,55.47-95.38,55.47Z"/>
        <path class="cls-4" d="M102.05,93.77c-3.76,6.62-10.92,11.09-19.06,11.09-12.08,0-21.92-9.84-21.92-21.92s9.84-21.92,21.92-21.92c8.14,0,15.3,4.47,19.06,11.18l11.63-6.71c-6.08-10.65-17.54-17.89-30.69-17.89-19.5,0-35.34,15.84-35.34,35.34s15.84,35.34,35.34,35.34c13.06,0,24.52-7.16,30.6-17.72,0,0-11.54-6.8-11.54-6.8ZM112.52,84.92l.81-3.85h-3.76v-4.21h4.56l1.07-5.55h4.38l-1.07,5.46h3.4l1.07-5.46h4.29l-1.07,5.46h2.15v4.21h-2.95l-.81,3.85h3.76v4.21h-4.56l-1.07,5.37h-4.38l1.07-5.37h-3.4l-1.07,5.37h-4.29l1.07-5.37h-2.15v-4.21h2.95v.09ZM116.81,84.92h3.4l.81-3.85h-3.4l-.81,3.85Z"/>
      </g>
    </g>
  </g>
</svg>