<?xml version="1.0" encoding="UTF-8"?>
<svg id="Layer_2" data-name="Layer 2" xmlns="http://www.w3.org/2000/svg" viewBox="0 0 165.9 165.9">
  <defs>
    <style>
      .cls-1 {
        fill: transparent;
      }

      .cls-1, .cls-2, .cls-3, .cls-4, .cls-5, .cls-6 {
        stroke-width: 0px;
      }

      .cls-2 {
        fill: #34a9db;
      }

      .cls-3 {
        fill: #ebebeb;
      }

      .cls-4 {
        fill: #fff;
      }

      .cls-5 {
        fill: #EEEEEE;
      }

      .cls-6 {
        fill: #1673b6;
      }
    </style>
  </defs>
  <g id="Layer_1-2" data-name="Layer 1">
    <g>
      <rect class="cls-1" width="165.9" height="165.9" rx="14.17" ry="14.17"/>
      <g>
        <path class="cls-5" d="M111.29,17.64h-8.29l8.63,9.36v4.46h-17.77v-5.22h8.62l-8.62-9.36v-4.46h17.43s0,5.22,0,5.22ZM90.34,17.64h-8.29l8.63,9.36v4.46h-17.77v-5.22h8.63l-8.63-9.36v-4.46h17.44v5.22ZM69.59,17.85h-8.95v8.17h8.95v5.44h-15.31V12.41h15.31s0,5.44,0,5.44Z"/>
        <path class="cls-6" d="M42.08,142.15l-9.1-102.01h99.94l-9.1,101.99-40.93,11.35s-40.81-11.33-40.81-11.33Z"/>
        <path class="cls-2" d="M82.95,144.81l33.07-9.17,7.78-87.16h-40.85v96.32Z"/>
        <path class="cls-4" d="M82.95,85.44h16.55l1.14-12.81h-17.7v-12.51h31.37l-.3,3.36-3.07,34.48h-28v-12.51Z"/>
        <path class="cls-3" d="M83.02,117.93l-.06.02-13.93-3.76-.89-9.98h-12.56l1.75,19.64,25.63,7.11.06-.02v-13.02h0Z"/>
        <path class="cls-4" d="M98.44,97.42l-1.51,16.75-13.95,3.77v13.02l25.65-7.11.19-2.11,2.18-24.32h-12.55Z"/>
        <path class="cls-3" d="M82.99,60.12v12.51h-30.22l-.25-2.81-.57-6.34-.3-3.36s31.34,0,31.34,0ZM82.95,85.44v12.51h-13.76l-.25-2.81-.57-6.34-.3-3.36h14.88Z"/>
      </g>
    </g>
  </g>
</svg>