<?xml version="1.0" encoding="UTF-8"?>
<svg id="Layer_2" data-name="Layer 2" xmlns="http://www.w3.org/2000/svg" viewBox="0 0 165.9 165.9">
  <defs>
    <style>
      .cls-1 {
        fill: transparent;
      }

      .cls-1, .cls-2, .cls-3 {
        stroke-width: 0px;
      }

      .cls-2 {
        fill: #6f459a;
      }

      .cls-3 {
        fill: #fff;
      }
    </style>
  </defs>
  <g id="Layer_1-2" data-name="Layer 1">
    <g>
      <rect class="cls-1" y="0" width="165.9" height="165.9" rx="14.17" ry="14.17"/>
      <g id="Layer_1-2" data-name="Layer 1-2">
        <g>
          <path class="cls-2" d="M147.84,82.92v27.01c0,6.79-2.98,12.02-8.77,15.4-15.54,9.07-31.17,17.99-46.79,26.95-6.38,3.66-12.77,3.42-19.1-.22-15.17-8.73-30.35-17.47-45.53-26.2-6.43-3.7-9.65-9.16-9.61-16.65.08-17.59.06-35.18,0-52.76-.02-7.4,3.24-12.79,9.59-16.44,15.18-8.73,30.35-17.46,45.53-26.21,6.57-3.79,13.09-3.75,19.66.05,15.04,8.69,30.08,17.38,45.16,26,6.59,3.77,9.97,9.23,9.88,16.9-.1,8.72-.03,17.45-.03,26.17h0Z"/>
          <g>
            <path class="cls-3" d="M43.03,87.2h-4.21v-4.21h4.21s0,4.21,0,4.21Z"/>
            <path class="cls-3" d="M73.75,87.2h-4.08l-15.76-23.74v23.74h-3.77v-30.08h4.06l15.76,23.74v-23.74h3.79v30.08Z"/>
            <path class="cls-3" d="M102.9,87.2h-22.43v-30.08h21.73v3.57h-17.75v9.19h16.6v3.57h-16.6v10.18h18.45v3.57h0Z"/>
            <path class="cls-3" d="M129.89,60.69h-9.95v26.51h-4v-26.51h-9.87v-3.57h23.82s0,3.57,0,3.57Z"/>
            <path class="cls-3" d="M69.64,110.12c-1.92,0-3.44-.63-4.58-1.89-1.14-1.26-1.71-2.96-1.71-5.11s.57-3.85,1.71-5.11c1.14-1.26,2.67-1.89,4.58-1.89,1.47,0,2.72.4,3.76,1.19s1.62,1.84,1.74,3.14h-1.84c-.08-.86-.45-1.53-1.11-2.04-.67-.5-1.51-.76-2.53-.76-1.37,0-2.46.47-3.26,1.42s-1.2,2.29-1.2,4.05.4,3.1,1.19,4.04,1.87,1.42,3.23,1.42c1.06,0,1.92-.26,2.57-.78s1.02-1.26,1.11-2.21h1.84c-.13,1.44-.7,2.56-1.7,3.34s-2.27,1.18-3.8,1.18h0Z"/>
            <path class="cls-3" d="M81.37,99.87c1.4,0,2.51.45,3.35,1.34.83.89,1.25,2.16,1.25,3.79s-.42,2.89-1.25,3.78c-.84.9-1.95,1.34-3.35,1.34s-2.5-.45-3.34-1.34c-.84-.9-1.25-2.16-1.25-3.78s.42-2.89,1.25-3.79c.83-.89,1.95-1.34,3.34-1.34ZM81.37,108.76c.83,0,1.5-.32,2.02-.95s.78-1.57.78-2.81-.26-2.19-.78-2.82c-.52-.63-1.19-.95-2.02-.95s-1.5.32-2.02.95-.78,1.57-.78,2.82.26,2.18.78,2.81c.52.63,1.19.95,2.02.95Z"/>
            <path class="cls-3" d="M93,101.68c-.25-.08-.6-.11-1.06-.11-.89,0-1.65.47-2.28,1.4v6.93h-1.74v-9.8h1.74v1.37c.73-1.06,1.58-1.59,2.55-1.59.25,0,.51.03.79.08v1.74h0Z"/>
            <path class="cls-3" d="M98.37,110.12c-1.44,0-2.6-.45-3.47-1.35s-1.31-2.16-1.31-3.77.42-2.85,1.27-3.76c.84-.91,1.95-1.36,3.32-1.36s2.51.45,3.35,1.34c.83.89,1.25,2.16,1.25,3.79v.42h-7.38c.08,1.13.39,1.97.94,2.52.55.55,1.23.82,2.03.82.61,0,1.16-.16,1.65-.47.49-.31.75-.75.77-1.32h1.8c-.13,1.01-.59,1.79-1.37,2.34-.78.55-1.73.82-2.85.82h0ZM100.94,104.05c-.14-.94-.46-1.65-.95-2.11s-1.1-.7-1.81-.7-1.29.23-1.79.7c-.5.47-.82,1.17-.95,2.12h5.51,0Z"/>
          </g>
        </g>
      </g>
    </g>
  </g>
</svg>