<?xml version="1.0" encoding="UTF-8"?>
<svg id="Layer_2" data-name="Layer 2" xmlns="http://www.w3.org/2000/svg" xmlns:xlink="http://www.w3.org/1999/xlink" viewBox="0 0 165.9 165.9">
  <defs>
    <style>
      .cls-1 {
        fill: url(#linear-gradient-12);
      }

      .cls-1, .cls-2, .cls-3, .cls-4, .cls-5, .cls-6, .cls-7, .cls-8, .cls-9, .cls-10, .cls-11, .cls-12, .cls-13, .cls-14, .cls-15, .cls-16, .cls-17, .cls-18, .cls-19, .cls-20, .cls-21, .cls-22, .cls-23, .cls-24, .cls-25, .cls-26, .cls-27, .cls-28, .cls-29, .cls-30, .cls-31, .cls-32, .cls-33 {
        stroke-width: 0px;
      }

      .cls-2 {
        fill: url(#linear-gradient-17);
      }

      .cls-3 {
        fill: url(#linear-gradient);
      }

      .cls-4 {
        fill: transparent;
      }

      .cls-5 {
        fill: url(#linear-gradient-6);
      }

      .cls-6 {
        fill: #13569b;
      }

      .cls-7 {
        fill: #269fda;
      }

      .cls-8 {
        fill: #145b9e;
      }

      .cls-9 {
        fill: url(#linear-gradient-15);
      }

      .cls-10 {
        fill: url(#linear-gradient-11);
      }

      .cls-11 {
        fill: #61c5ec;
      }

      .cls-12 {
        fill: #3292c4;
      }

      .cls-13 {
        fill: url(#linear-gradient-5);
      }

      .cls-14 {
        fill: #2862ae;
      }

      .cls-15 {
        fill: url(#linear-gradient-13);
      }

      .cls-16 {
        fill: url(#linear-gradient-16);
      }

      .cls-17 {
        fill: #EEEEEE;
      }

      .cls-18 {
        fill: url(#linear-gradient-14);
      }

      .cls-19 {
        fill: url(#linear-gradient-2);
      }

      .cls-20 {
        fill: #277bbf;
      }

      .cls-21 {
        fill: url(#linear-gradient-7);
      }

      .cls-22 {
        fill: url(#linear-gradient-3);
      }

      .cls-23 {
        fill: url(#linear-gradient-9);
      }

      .cls-24 {
        fill: #7ecbeb;
      }

      .cls-25 {
        fill: #1d60ab;
      }

      .cls-26 {
        fill: #2898d5;
      }

      .cls-27 {
        fill: url(#linear-gradient-8);
      }

      .cls-28 {
        fill: url(#linear-gradient-18);
      }

      .cls-29 {
        fill: #2c75b2;
      }

      .cls-30 {
        fill: #266ab4;
      }

      .cls-31 {
        fill: url(#linear-gradient-10);
      }

      .cls-32 {
        fill: url(#linear-gradient-4);
      }

      .cls-33 {
        fill: #295eac;
      }
    </style>
    <linearGradient id="linear-gradient" x1="-251.12" y1="1068.75" x2="-250.72" y2="1068.75" gradientTransform="translate(160106.43 37628.5) rotate(90) scale(149.74)" gradientUnits="userSpaceOnUse">
      <stop offset="0" stop-color="#2693d1"/>
      <stop offset=".35" stop-color="#67cef4"/>
      <stop offset=".35" stop-color="#67cef4"/>
      <stop offset=".85" stop-color="#277bbf"/>
      <stop offset=".85" stop-color="#277bbf"/>
      <stop offset="1" stop-color="#277bbf"/>
    </linearGradient>
    <linearGradient id="linear-gradient-2" x1="-250.96" y1="1068.81" x2="-250.57" y2="1068.81" gradientTransform="translate(164196.45 38561.01) rotate(90) scale(153.55)" gradientUnits="userSpaceOnUse">
      <stop offset="0" stop-color="#1377bc"/>
      <stop offset=".36" stop-color="#3dade2"/>
      <stop offset=".36" stop-color="#3dade2"/>
      <stop offset=".85" stop-color="#2dabe2"/>
      <stop offset=".85" stop-color="#2dabe2"/>
      <stop offset="1" stop-color="#2dabe2"/>
    </linearGradient>
    <linearGradient id="linear-gradient-3" x1="-237.7" y1="1072.02" x2="-237.3" y2="1072.02" gradientTransform="translate(-130885.72 -28967.97) rotate(-90) scale(122.18)" gradientUnits="userSpaceOnUse">
      <stop offset="0" stop-color="#2865b0"/>
      <stop offset=".5" stop-color="#3fbced"/>
      <stop offset="1" stop-color="#3fbced" stop-opacity=".42"/>
    </linearGradient>
    <linearGradient id="linear-gradient-4" x1="-250.69" y1="1068.95" x2="-250.3" y2="1068.95" gradientTransform="translate(170505.42 39985.97) rotate(90) scale(159.43)" gradientUnits="userSpaceOnUse">
      <stop offset="0" stop-color="#206bb5"/>
      <stop offset=".4" stop-color="#3dade2"/>
      <stop offset=".4" stop-color="#3dade2"/>
      <stop offset=".85" stop-color="#2397d4"/>
      <stop offset=".85" stop-color="#2397d4"/>
      <stop offset="1" stop-color="#2397d4"/>
    </linearGradient>
    <linearGradient id="linear-gradient-5" x1="-250.38" y1="1068.99" x2="-249.98" y2="1068.99" gradientTransform="translate(181306.67 42466.05) rotate(90) scale(169.53)" gradientUnits="userSpaceOnUse">
      <stop offset="0" stop-color="#174479"/>
      <stop offset=".39" stop-color="#1d87c9"/>
      <stop offset=".39" stop-color="#1d87c9"/>
      <stop offset=".78" stop-color="#165297"/>
      <stop offset=".78" stop-color="#165297"/>
      <stop offset="1" stop-color="#165297"/>
    </linearGradient>
    <linearGradient id="linear-gradient-6" x1="778.71" y1="2920.46" x2="781.05" y2="2920.46" gradientTransform="translate(-3088.84 -11752.25) scale(4.04)" gradientUnits="userSpaceOnUse">
      <stop offset="0" stop-color="#3fbced" stop-opacity=".7"/>
      <stop offset="1" stop-color="#20acd8"/>
    </linearGradient>
    <linearGradient id="linear-gradient-7" x1="-237.51" y1="1071.6" x2="-237.11" y2="1071.6" gradientTransform="translate(-127412.07 -28195.64) rotate(-90) scale(119.02)" gradientUnits="userSpaceOnUse">
      <stop offset="0" stop-color="#166bb5"/>
      <stop offset=".6" stop-color="#5ec9f4" stop-opacity=".55"/>
      <stop offset="1" stop-color="#5ec9f4" stop-opacity=".23"/>
    </linearGradient>
    <linearGradient id="linear-gradient-8" x1="770.39" y1="2923.24" x2="779.08" y2="2923.24" gradientTransform="translate(-3088.84 -11752.25) scale(4.04)" gradientUnits="userSpaceOnUse">
      <stop offset="0" stop-color="#269fda" stop-opacity=".25"/>
      <stop offset="1" stop-color="#269fda"/>
    </linearGradient>
    <linearGradient id="linear-gradient-9" x1="-237.68" y1="1072.64" x2="-237.29" y2="1072.64" gradientTransform="translate(-130675.75 -28891.69) rotate(-90) scale(121.86)" gradientUnits="userSpaceOnUse">
      <stop offset="0" stop-color="#388dcc"/>
      <stop offset="1" stop-color="#40a6de"/>
    </linearGradient>
    <linearGradient id="linear-gradient-10" x1="-237.46" y1="1072.67" x2="-237.06" y2="1072.67" gradientTransform="translate(-127023.91 -28055.84) rotate(-90) scale(118.46)" gradientUnits="userSpaceOnUse">
      <stop offset="0" stop-color="#269fda"/>
      <stop offset="1" stop-color="#269fda" stop-opacity=".55"/>
    </linearGradient>
    <linearGradient id="linear-gradient-11" x1="-235.97" y1="1073.07" x2="-235.58" y2="1073.07" gradientTransform="translate(-107366.38 -23544.94) rotate(-90) scale(100.1)" gradientUnits="userSpaceOnUse">
      <stop offset="0" stop-color="#1e5ba6"/>
      <stop offset=".5" stop-color="#269fda"/>
      <stop offset=".5" stop-color="#269fda"/>
      <stop offset=".92" stop-color="#7fc5e9"/>
      <stop offset="1" stop-color="#7fc5e9"/>
    </linearGradient>
    <linearGradient id="linear-gradient-12" x1="-237.43" y1="1074.23" x2="-237.03" y2="1074.23" gradientTransform="translate(-121087.87 -5137.76) rotate(-100) scale(110.21)" gradientUnits="userSpaceOnUse">
      <stop offset="0" stop-color="#165196"/>
      <stop offset="1" stop-color="#1982c5"/>
    </linearGradient>
    <linearGradient id="linear-gradient-13" x1="-229.52" y1="1073.24" x2="-229.13" y2="1073.24" gradientTransform="translate(-60756.36 -12969.79) rotate(-90) scale(56.72)" gradientUnits="userSpaceOnUse">
      <stop offset="0" stop-color="#269fda"/>
      <stop offset=".87" stop-color="#1795d3"/>
      <stop offset="1" stop-color="#1795d3"/>
    </linearGradient>
    <linearGradient id="linear-gradient-14" x1="-251.92" y1="1070.31" x2="-251.53" y2="1070.31" gradientTransform="translate(134310.59 57659.16) rotate(100) scale(132.81)" gradientUnits="userSpaceOnUse">
      <stop offset="0" stop-color="#40a6de" stop-opacity=".33"/>
      <stop offset=".96" stop-color="#2687c8"/>
      <stop offset=".96" stop-color="#2687c8"/>
      <stop offset="1" stop-color="#2687c8"/>
    </linearGradient>
    <linearGradient id="linear-gradient-15" x1="-252.31" y1="1068.98" x2="-251.92" y2="1068.98" gradientTransform="translate(132398.78 31248.46) rotate(90) scale(123.74)" gradientUnits="userSpaceOnUse">
      <stop offset="0" stop-color="#258bcc"/>
      <stop offset=".5" stop-color="#2287c9"/>
      <stop offset="1" stop-color="#164c8d"/>
    </linearGradient>
    <linearGradient id="linear-gradient-16" x1="1498.31" y1="1124.64" x2="1498.71" y2="1124.64" gradientTransform="translate(-282639.84 72423.71) rotate(22.53) scale(155.77 -155.77)" gradientUnits="userSpaceOnUse">
      <stop offset="0" stop-color="#98d5ed"/>
      <stop offset=".7" stop-color="#57c1ea"/>
      <stop offset="1" stop-color="#57c1ea"/>
    </linearGradient>
    <linearGradient id="linear-gradient-17" x1="1503.59" y1="1124.49" x2="1503.99" y2="1124.49" gradientTransform="translate(-112874.61 205273.23) rotate(-24.38) scale(124.77 -124.77)" gradientUnits="userSpaceOnUse">
      <stop offset="0" stop-color="#7bcceb"/>
      <stop offset="1" stop-color="#45b7e9"/>
    </linearGradient>
    <linearGradient id="linear-gradient-18" x1="-252.51" y1="1068.87" x2="-252.11" y2="1068.87" gradientTransform="translate(129481.76 30590.57) rotate(90) scale(121.03)" gradientUnits="userSpaceOnUse">
      <stop offset="0" stop-color="#2da6de"/>
      <stop offset="1" stop-color="#3eaae0" stop-opacity="0"/>
    </linearGradient>
  </defs>
  <g id="Layer_1-2" data-name="Layer 1">
    <g>
      <rect class="cls-4" y="0" width="165.9" height="165.9" rx="14.17" ry="14.17"/>
      <g>
        <path class="cls-17" d="M50.68,99.95h-1.77v-10.12c0-.8.05-1.77.15-2.92h-.04c-.17.67-.32,1.16-.45,1.46l-5.14,11.58h-.86l-5.15-11.5c-.14-.32-.3-.84-.45-1.54h-.04c.05.6.09,1.58.09,2.94v10.1h-1.71v-15.07h2.33l4.62,10.51c.35.79.57,1.39.68,1.8h.07c.3-.82.54-1.44.72-1.85l4.72-10.46h2.21v15.07h0ZM56.12,99.95h-1.72v-10.76h1.72v10.76ZM56.41,85.33c0,.32-.11.58-.33.8-.21.21-.5.33-.8.33-.31,0-.57-.11-.79-.32-.22-.21-.33-.48-.33-.81,0-.31.11-.58.33-.79.22-.22.49-.32.79-.32s.58.1.8.32c.22.22.33.48.33.79M66.86,99.46c-.82.51-1.81.76-2.95.76-1.54,0-2.78-.51-3.73-1.53-.92-.99-1.39-2.28-1.39-3.85,0-1.76.5-3.19,1.52-4.27,1.01-1.09,2.37-1.63,4.08-1.63.93,0,1.76.18,2.49.55v1.77c-.8-.56-1.65-.84-2.56-.84-1.1,0-1.99.38-2.68,1.15-.72.78-1.08,1.83-1.08,3.13s.33,2.24.99,2.97c.66.73,1.55,1.09,2.66,1.09.94,0,1.82-.31,2.65-.93v1.64s0,0,0,0ZM75.08,90.94c-.3-.23-.74-.35-1.32-.35-.7,0-1.29.31-1.76.94-.54.7-.81,1.68-.81,2.93v5.49h-1.72v-10.76h1.72v2.22h.04c.25-.79.64-1.39,1.17-1.82.46-.38,1.05-.59,1.65-.59.46,0,.8.05,1.03.15v1.79s0,0,0,0ZM84.68,94.59c0-1.38-.31-2.43-.93-3.15-.6-.69-1.45-1.04-2.53-1.04s-1.93.35-2.57,1.05c-.68.75-1.02,1.81-1.02,3.18,0,1.29.32,2.3.98,3.02.65.73,1.52,1.09,2.62,1.09s2-.37,2.59-1.1c.58-.72.87-1.73.87-3.05M86.44,94.53c0,1.71-.48,3.09-1.45,4.12-.97,1.04-2.27,1.55-3.91,1.55s-2.9-.52-3.84-1.55c-.92-1-1.39-2.32-1.39-3.96,0-1.87.52-3.32,1.58-4.34.97-.95,2.28-1.43,3.91-1.43s2.86.5,3.76,1.49c.9,1,1.35,2.37,1.35,4.11M94.99,97.08c0,.88-.33,1.61-.99,2.19-.72.63-1.71.94-2.95.94-1.02,0-1.91-.21-2.67-.65v-1.85c.84.69,1.78,1.03,2.8,1.03,1.36,0,2.05-.5,2.05-1.5.01-.4-.15-.78-.45-1.04-.3-.28-.89-.6-1.77-.99-.9-.39-1.54-.8-1.92-1.22-.46-.5-.68-1.15-.68-1.94,0-.89.36-1.64,1.06-2.23.71-.59,1.62-.89,2.73-.89.86,0,1.62.17,2.3.5v1.73c-.71-.51-1.52-.77-2.44-.77-.57,0-1.03.14-1.37.42-.33.26-.53.66-.52,1.08,0,.48.14.85.43,1.11.26.24.8.54,1.62.89.92.38,1.58.78,1.99,1.19.53.52.79,1.17.79,1.97M105.51,94.59c0-1.38-.31-2.43-.93-3.15-.6-.69-1.45-1.04-2.53-1.04s-1.93.35-2.58,1.05c-.68.75-1.02,1.81-1.02,3.18,0,1.29.32,2.3.97,3.02.66.73,1.53,1.09,2.62,1.09s2-.37,2.59-1.1c.58-.72.87-1.73.87-3.05M107.28,94.53c0,1.71-.49,3.09-1.46,4.12-.96,1.04-2.27,1.55-3.91,1.55s-2.9-.52-3.85-1.55c-.92-1-1.39-2.32-1.39-3.96,0-1.87.53-3.32,1.58-4.34.97-.95,2.28-1.43,3.91-1.43s2.86.5,3.76,1.49c.9,1,1.35,2.37,1.35,4.11M114.87,85.54c-.35-.19-.74-.29-1.14-.28-1.21,0-1.8.76-1.8,2.28v1.66h2.52v1.46h-2.52v9.3h-1.72v-9.3h-1.83v-1.46h1.83v-1.74c0-1.18.36-2.11,1.1-2.78.63-.58,1.4-.87,2.32-.87.53,0,.95.06,1.25.19v1.55ZM121.67,99.85c-.41.23-.95.35-1.62.35-1.88,0-2.82-1.06-2.82-3.18v-6.36h-1.85v-1.46h1.85v-2.63c.55-.17,1.12-.36,1.73-.56v3.18h2.71v1.46h-2.71v6.07c0,.72.12,1.24.36,1.54.25.31.66.46,1.23.46.43,0,.8-.11,1.11-.35,0,0,0,1.47,0,1.47ZM28.55,141.96c0,.84-.3,1.57-.91,2.19-.57.6-1.37.94-2.2.92-.82.01-1.6-.32-2.15-.92-.58-.58-.89-1.37-.88-2.19,0-.87.29-1.6.88-2.2.56-.59,1.34-.92,2.15-.91.86,0,1.6.31,2.2.92.61.62.91,1.35.91,2.19M67.12,144.43h-5.62l-20.39-31.49c-.49-.79-.9-1.62-1.24-2.48h-.17c.15.84.22,2.65.22,5.43v28.55h-4.63v-39.51h6.01l19.78,31c.79,1.23,1.33,2.11,1.6,2.64h.11c-.18-1.14-.28-3.07-.28-5.81v-27.83h4.6v39.51h0ZM96.81,144.43h-20.94v-39.51h20.03v4.19h-15.41v13.14h14.27v4.19h-14.27v13.8h16.31s0,4.19,0,4.19ZM128.58,109.11h-11.38v35.33h-4.63v-35.33h-11.4v-4.19h27.41s0,4.19,0,4.19Z"/>
        <path class="cls-3" d="M65.55,36.68c4.47,13.66,6.16,38.04,19.22,38.04.99,0,2-.1,3.01-.29-11.88-2.77-13.28-26.88-20.53-39.36-.58.53-1.15,1.07-1.7,1.61"/>
        <path class="cls-19" d="M67.25,35.06c7.25,12.48,8.65,36.59,20.53,39.36.95-.18,1.89-.43,2.81-.76-10.66-5.22-13.61-28.63-21.84-39.9-.5.42-1,.85-1.5,1.3"/>
        <path class="cls-6" d="M77.7,27.64c-.99,0-2,.1-3.01.29-2.64.5-5.33,1.64-8.04,3.36.77.77,1.47,1.59,2.11,2.48,2.75-2.28,5.49-3.97,8.21-4.99.99-.37,2.02-.66,3.06-.85-.76-.19-1.55-.29-2.34-.29"/>
        <path class="cls-22" d="M98.91,68.85c1.14-.91,2.23-1.87,3.28-2.87-4.54-13.6-6.17-38.32-19.32-38.32-.94,0-1.89.09-2.84.26,11.98,2.98,13.52,29.05,18.88,40.93"/>
        <path class="cls-12" d="M80.03,27.92c-.76-.19-1.55-.29-2.34-.29l5.17.02c-.94,0-1.89.09-2.84.27"/>
        <path class="cls-30" d="M98.68,71.74c-.52-.51-1.02-1.04-1.48-1.6-2.21,1.57-4.42,2.76-6.61,3.53.78.38,1.6.66,2.46.84.69.14,1.39.21,2.1.21,2.46,0,4.4-.29,6.06-1.08-.91-.49-1.75-1.13-2.53-1.89"/>
        <path class="cls-32" d="M76.97,28.78c10.73,5.61,11.67,31.04,20.23,41.36.57-.4,1.14-.83,1.71-1.28-5.36-11.88-6.89-37.95-18.88-40.93-1.04.2-2.07.48-3.07.86"/>
        <path class="cls-13" d="M68.75,33.76c8.23,11.27,11.18,34.68,21.84,39.9,2.19-.77,4.4-1.96,6.61-3.53-8.56-10.32-9.5-35.75-20.23-41.36-2.72,1.01-5.46,2.7-8.21,4.99"/>
        <path class="cls-5" d="M60.29,36.35c-1.29,2.92-2.61,6.75-4.2,11.76,3.17-4.46,6.33-8.31,9.47-11.43-.4-1.24-.86-2.46-1.4-3.65-1.35,1.04-2.64,2.14-3.87,3.32"/>
        <path class="cls-29" d="M65.3,32.19c-.38.27-.76.55-1.14.84.53,1.19,1,2.41,1.4,3.65.56-.55,1.13-1.09,1.7-1.61-.58-1.01-1.23-1.97-1.96-2.87"/>
        <path class="cls-8" d="M66.65,31.29c-.45.29-.9.59-1.35.9.73.91,1.38,1.87,1.96,2.88.5-.45,1-.89,1.5-1.3-.63-.88-1.34-1.71-2.11-2.48"/>
        <path class="cls-21" d="M139.86,26.6c-6.07,23.41-18.75,42.22-29.38,46.96h-.02l-.57.24-.07.03-.16.06-.07.03-.27.09-.11.04-.13.04-.13.04-.11.04-.23.07-.1.03-.15.04-.1.03-.17.04-.2.04c.48.18.98.27,1.52.27,10.08,0,20.24-18.06,37.06-48.1h-6.6s0,0,0,0Z"/>
        <path class="cls-27" d="M53.9,28.59l.02-.02.02-.02h.01l.16-.06.03-.02.04-.02.18-.06h0l.39-.14.06-.02.17-.05.08-.02.17-.05.06-.02.55-.14.08-.02.16-.03.08-.02.16-.03h.04l.34-.06h.07l.16-.03.09-.02.15-.02.08-.02.36-.03c-.36-.03-.72-.05-1.07-.05-11.35,0-26.99,21.06-34.04,48.34h1.36c2.11-3.76,4.15-7.56,6.13-11.4,4.94-19.32,14.98-32.5,23.91-35.99"/>
        <path class="cls-23" d="M29.98,64.57c10.35-19.95,15.26-32.57,23.91-35.99-8.93,3.49-18.98,16.67-23.91,35.99"/>
        <path class="cls-20" d="M63.82,30.59c-.2.21-.39.42-.59.66.33.54.63,1.14.92,1.78.38-.29.76-.57,1.14-.84-.46-.57-.95-1.1-1.48-1.59"/>
        <path class="cls-31" d="M34.68,75.88l-.19.02h-.04l-.16.02h-.03l-.38.03h-.04c10.48-.29,15.27-5.54,17.64-13.15,1.8-5.77,3.29-10.63,4.59-14.7-4.39,6.18-8.8,13.54-13.23,21.79-2.14,3.98-5.39,5.64-8.17,5.99"/>
        <path class="cls-10" d="M34.68,75.88c2.79-.36,6.04-2.01,8.17-5.99,4.43-8.25,8.84-15.61,13.23-21.79,1.6-5.01,2.91-8.84,4.2-11.75-8.74,8.32-17.51,22.15-25.6,39.53"/>
        <path class="cls-7" d="M29.98,64.57c-1.98,3.83-4.03,7.63-6.13,11.4h3.95c.5-3.84,1.23-7.64,2.18-11.39"/>
        <path class="cls-1" d="M57.24,27.73l-.08.02-.15.02-.09.02-.16.03-.07.02-.34.06h-.04l-.16.03-.08.02-.16.03-.08.02-.55.14-.06.02-.17.05-.08.02-.17.05-.06.02-.38.14-.17.06-.07.03-.16.06-.05.03c-8.66,3.42-13.56,16.04-23.91,35.99-.96,3.75-1.69,7.56-2.18,11.39h.55l3.8-.02h1.74l.38-.03h.02l.16-.02h.04l.19-.02c8.09-17.38,16.86-31.21,25.6-39.53.96-2.18,1.91-3.84,2.94-5.1-.61-1.02-1.27-1.88-2.01-2.5l-.02-.02-.12-.06-.12-.06-.12-.06-.14-.06-.11-.05-.23-.1-.1-.04-.17-.07-.09-.03-.24-.08h-.02l-.28-.08-.06-.02-.23-.07-.05-.02c-.19-.05-.38-.09-.58-.13l-.06-.02-.25-.04-.05-.02-.3-.04h-.05l-.23-.03-.36.03"/>
        <path class="cls-15" d="M116.15,39.56c-1.99,6.38-3.6,11.64-5.01,15.97,5.47-7.52,10.85-16.98,15.97-27.9-5.98,1.88-9.17,6.18-10.97,11.92"/>
        <path class="cls-18" d="M111.32,73.15c-.28.14-.56.28-.83.4,10.63-4.74,23.31-23.55,29.38-46.96h-1.23c-13.95,24.91-18.43,41.59-27.32,46.56"/>
        <path class="cls-26" d="M104.37,71.06c2.31-2.82,4.2-7.62,6.77-15.53-2.97,4.07-5.95,7.58-8.94,10.43l-.02.03c.65,1.95,1.37,3.68,2.18,5.07"/>
        <path class="cls-30" d="M104.37,71.06c-.79.96-1.62,1.69-2.55,2.23-.2.12-.41.23-.62.33.98.53,2.05.88,3.24,1.02l.53.05h.03l.25.02h.87l.1-.02.19-.02h.09l.21-.02h.02l.06-.02.22-.03h.07l.25-.04h.04l.5-.11c-1.37-.5-2.52-1.69-3.51-3.37"/>
        <path class="cls-33" d="M84.78,74.71c.99,0,2-.1,3.01-.29.93-.17,1.87-.43,2.81-.76,1.42.7,2.98,1.05,4.56,1.05h-10.38ZM95.15,74.71c2.46,0,4.4-.29,6.06-1.08,1.01.55,2.11.89,3.24,1.02l.53.05h.03l.25.02h.31s-10.42,0-10.42,0Z"/>
        <path class="cls-14" d="M105.57,74.71h.57l.1-.02.19-.02h.09l.21-.02h.02l.06-.02.22-.03.07-.02.25-.04h.04l.5-.11c.49.18,1,.27,1.52.27l-3.83.02s0-.02,0-.02Z"/>
        <path class="cls-25" d="M102.19,65.99v-.02c-1.05,1.01-2.14,1.97-3.28,2.87-.57.45-1.14.88-1.71,1.28.46.56.96,1.1,1.48,1.6.78.76,1.62,1.4,2.53,1.89.21-.1.41-.21.62-.33.93-.54,1.76-1.27,2.55-2.23-.82-1.39-1.53-3.12-2.18-5.07"/>
        <path class="cls-9" d="M134.74,26.6h-6.19l-.98.05-.46.98c-5.12,10.92-10.51,20.38-15.97,27.9-2.57,7.91-4.46,12.71-6.77,15.53.99,1.69,2.14,2.87,3.51,3.38l.11-.02h.02l.08-.02.17-.04.1-.03.15-.04.1-.03.23-.07.11-.04.13-.05.13-.04.11-.04.27-.09.07-.03.16-.06.07-.03.57-.24h.02c.28-.12.55-.26.83-.4,8.89-4.96,13.37-21.64,27.32-46.56h-3.9,0s0,0,0,0Z"/>
        <path class="cls-24" d="M57.61,27.69l.06.02.16.02h.05l.29.04.05.02.25.04.06.02.57.13.05.02.23.07.06.02.27.08.02.02.24.08.09.03.17.07.1.03.23.1.11.05.14.06.12.06.12.06c1,.5,1.93,1.15,2.74,1.92.31-.33.63-.62.97-.88-1.84-1.31-3.93-2.05-6.34-2.05-.28,0-.56.02-.84.04"/>
        <path class="cls-11" d="M63.82,30.59c.52.48,1.01,1.02,1.48,1.59.45-.31.9-.62,1.35-.9-.57-.58-1.2-1.11-1.86-1.58-.35.27-.67.56-.97.88"/>
        <path class="cls-16" d="M57.34,27.76l.84-.04c2.41,0,4.5.74,6.34,2.05,1.95-1.53,4.3-2.07,7.57-2.07h-15.82l1.07.06"/>
        <path class="cls-2" d="M72.09,27.7c-3.27,0-5.62.54-7.57,2.07.65.46,1.27.98,1.86,1.57,2.71-1.72,5.39-2.86,8.04-3.36,1.01-.19,2.01-.29,3.01-.29h-5.34s0,0,0,0Z"/>
        <path class="cls-28" d="M111.14,55.53c1.41-4.33,3.01-9.59,5.01-15.98,1.8-5.75,4.98-10.05,10.96-11.92l.46-.98c-9.75.58-14.3,5.54-16.59,12.89-4.01,12.82-6.44,21.13-8.78,26.42,2.99-2.86,5.97-6.36,8.94-10.43"/>
      </g>
    </g>
  </g>
</svg>