<?xml version="1.0" encoding="UTF-8"?>
<svg id="Layer_2" data-name="Layer 2" xmlns="http://www.w3.org/2000/svg" viewBox="0 0 165.9 165.9">
  <defs>
    <style>
      .cls-1 {
        fill: transparent;
      }

      .cls-1, .cls-2, .cls-3 {
        stroke-width: 0px;
      }

      .cls-2 {
        fill: #f36c3d;
      }

      .cls-3 {
        fill: #fff;
      }
    </style>
  </defs>
  <g id="Layer_1-2" data-name="Layer 1">
    <g>
      <rect class="cls-1" y="0" width="165.9" height="165.9" rx="14.17" ry="14.17"/>
      <g>
        <path class="cls-2" d="M131.98,45.09c-20.91-27.08-59.81-32.08-86.89-11.17-27.08,20.91-32.08,59.81-11.17,86.89,20.91,27.08,59.81,32.08,86.89,11.17,0,0,0,0,.01-.01,27.06-20.91,32.06-59.81,11.15-86.88h0Z"/>
        <path class="cls-3" d="M103.84,60.47l-26.12,26.33-7.38-7.59c25.71-25.71,28.29-23.38,33.5-18.74h0Z"/>
        <path class="cls-2" d="M77.72,87.52c-.23,0-.45-.1-.62-.26l-7.43-7.43c-.35-.36-.35-.93,0-1.29,25.35-25.35,28.8-24.16,34.79-18.74.2.16.32.41.31.67.04.25-.06.51-.26.67l-26.12,26.12c-.18.17-.42.26-.67.26h0ZM71.63,79.21l6.09,6.09,24.78-24.78c-1.77-2.22-4.93-2.75-7.33-1.24-4.49,2.01-11.72,8.16-23.54,19.93Z"/>
        <path class="cls-3" d="M85.21,94.08l-7.12-7.28,26.12-25.81c7.02,6.87-3.41,18.33-19,33.09h0Z"/>
        <path class="cls-2" d="M85.21,95.01c-.23-.02-.45-.11-.62-.26l-7.28-7.12c-.11-.26-.11-.56,0-.83-.08-.22-.08-.45,0-.67l26.12-26.12c.38-.35.96-.35,1.34,0,1.71,1.58,2.65,3.82,2.58,6.14,0,6.97-7.95,15.74-21.47,28.55-.18.18-.42.29-.67.31h0ZM79.43,86.8l5.83,5.83c10.32-9.76,20.18-19.82,20.23-26.64.06-1.44-.42-2.86-1.34-3.97l-24.73,24.78Z"/>
        <path class="cls-3" d="M70.55,79.37l5.16,5.16c.13.11.14.31.03.44,0,0-.02.02-.03.03l-10.89,2.32c-.45.1-.91-.12-1.13-.53s-.14-.91.2-1.23l6.35-6.3s.21,0,.31.1Z"/>
        <path class="cls-2" d="M64.56,88.35c-.7,0-1.34-.38-1.7-.98-.41-.77-.26-1.72.36-2.32l6.3-6.35c.47-.42,1.18-.42,1.65,0l5.16,5.16c.31.29.43.73.31,1.14s-.46.73-.88.83l-10.89,2.32-.31.21ZM70.34,80.5l-5.83,5.83,9.65-2.07-3.82-3.77Z"/>
        <path class="cls-3" d="M117.73,45.97c-3.74-3.6-9.61-3.76-13.52-.35s-4.59,9.24-1.54,13.44,8.8,5.38,13.25,2.71l-7.02-7.02,8.83-8.77Z"/>
        <path class="cls-2" d="M110.76,64.14c-4.39-.06-8.32-2.73-9.98-6.79-1.66-4.06-.74-8.72,2.32-11.84,4.3-4.22,11.19-4.22,15.49,0,.2.17.31.41.31.67,0,.26-.11.5-.31.67l-8.36,7.9,6.35,6.25c.21.2.31.49.26.77-.03.27-.18.52-.41.67-1.71,1.07-3.67,1.65-5.68,1.7h.02ZM110.76,44.11c-3.68.02-6.97,2.23-8.35,5.61-1.38,3.38-.63,7.27,1.95,9.87,2.62,2.64,6.58,3.4,10.01,1.91l-6.09-6.09c-.2-.16-.32-.41-.31-.67,0-.24.12-.47.31-.62l8.05-8.11c-1.6-1.23-3.56-1.9-5.58-1.91h0Z"/>
        <path class="cls-3" d="M117.88,46.12l-8.83,8.77,7.02,7.02c.71-.41,1.36-.89,1.96-1.45,3.83-4.07,3.76-10.39-.15-14.35Z"/>
        <path class="cls-2" d="M115.92,62.69c-.23.01-.46-.08-.62-.26l-7.02-7.02c-.2-.16-.32-.41-.31-.67,0-.24.12-.47.31-.62l8.77-8.62c.28-.43.86-.54,1.29-.26.1.07.19.16.26.26,4.28,4.19,4.35,11.05.16,15.33-.05.05-.1.1-.16.16-.61.64-1.3,1.2-2.07,1.65-.19.1-.41.12-.62.05h0ZM110.24,54.74l5.83,5.83c.4-.28.78-.59,1.14-.93,1.71-1.71,2.68-4.03,2.68-6.45,0-2.17-.79-4.26-2.22-5.88l-7.43,7.43Z"/>
        <path class="cls-3" d="M104.93,61.56c-1.45-1.36-3.71-1.36-5.16,0l-23.38,23.33,3.87,3.92,24.73-21.68c.76-.73,1.19-1.74,1.18-2.8s-.46-2.06-1.23-2.78h0Z"/>
        <path class="cls-2" d="M80.05,89.74c-.23,0-.45-.1-.62-.26l-3.92-3.92c-.35-.36-.35-.93,0-1.29l23.38-23.28c1.85-1.85,4.86-1.85,6.71,0,.93.93,1.43,2.2,1.39,3.51-.05,1.3-.63,2.53-1.6,3.41l-24.73,21.68c-.18.13-.4.18-.62.15h0ZM77.31,84.89l2.58,2.63,24.26-21.11c.6-.52.96-1.27.98-2.07s-.29-1.57-.88-2.12c-1.13-1.12-2.95-1.12-4.08,0l-22.87,22.66Z"/>
        <path class="cls-3" d="M58.26,111.47c-.14.18-.14.44,0,.62l1.03,4.49c.09.54-.17,1.07-.64,1.36-.47.28-1.07.22-1.48-.15l-7.07-6.81,22.04-22.22h7.64l5.16,5.16c-8.05,7.04-17.03,12.95-26.69,17.55Z"/>
        <path class="cls-2" d="M57.8,119.06c-.58-.01-1.16-.25-1.55-.67l-6.76-6.76c-.2-.16-.32-.41-.31-.67,0-.24.12-.47.31-.62l22.2-22.25c.12-.13.29-.22.46-.26h7.69c.2-.07.42-.07.62,0l5.16,5.16c.2.18.3.45.26.72,0,.26-.11.51-.31.67l-.41.36c-8.09,6.74-16.98,12.45-26.48,16.98l.98,4.18c.28,1.2-.46,2.4-1.66,2.68-.15.04-.3.05-.46.06l.26.41ZM51.5,110.96l6.09,6.14c.12.1.29.1.41,0,.08-.11.08-.25,0-.36l-1.03-4.49c-.17-.66.15-1.36.77-1.65,9.24-4.48,17.91-10.06,25.81-16.62l-4.23-4.23h-6.92l-20.9,21.22Z"/>
        <path class="cls-3" d="M44.79,116.27l5.16-5.16,7.95,7.95-12.65-.88c-.45-.03-.82-.35-.93-.79s.08-.89.46-1.12h0Z"/>
        <path class="cls-2" d="M58.06,119.84l-12.6-.88c-.75-.07-1.39-.58-1.65-1.26s-.1-1.49.41-2.04l5.16-5.16c.36-.35.93-.35,1.29,0l7.9,7.9c.22.31.22.72,0,1.03-.12.19-.3.34-.52.41h0ZM45.46,116.95l10.32.67-5.68-5.32-4.65,4.65Z"/>
        <path class="cls-3" d="M80.51,89.38l-10.43,1.6,6.04-5.99,4.39,4.39Z"/>
        <path class="cls-2" d="M70.08,91.96c-.35,0-.68-.19-.83-.52-.23-.31-.23-.72,0-1.03l5.99-6.04c.38-.35.96-.35,1.34,0l4.39,4.39c.18.28.18.65,0,.93-.09.35-.37.61-.72.67l-10.32,1.6h.15ZM76.12,86.33l-3.35,3.35,5.78-.88-2.43-2.48Z"/>
        <path class="cls-3" d="M80.51,89.38l-7.28.93c-.5.11-1-.2-1.11-.7-.07-.3.02-.62.23-.85l3.77-3.77,4.39,4.39Z"/>
        <path class="cls-2" d="M73.02,91.29c-.69,0-1.32-.38-1.65-.98-.41-.73-.28-1.63.31-2.22l3.77-3.77c.38-.35.96-.35,1.34,0l4.39,4.39c.37.35.39.94.04,1.31-.16.17-.37.27-.6.29l-7.23.93-.36.05ZM73.02,89.38l5.47-.67-2.43-2.43-3.1,3.1h.05ZM117.94,52.06c-.2-.34-.62-.47-.98-.31-.17.09-.3.24-.36.43-.06.18-.04.38.05.56.36.76.26,1.66-.26,2.32-.14.13-.19.3-.19.49,0,.18.07.36.19.49.13.05.28.05.41,0,.25.06.5-.02.67-.21.87-1.06,1.05-2.53.46-3.77h0Z"/>
      </g>
    </g>
  </g>
</svg>