<?xml version="1.0" encoding="UTF-8"?>
<svg id="Layer_2" data-name="Layer 2" xmlns="http://www.w3.org/2000/svg" viewBox="0 0 165.9 165.9">
  <defs>
    <style>
      .cls-1 {
        fill: transparent;
      }

      .cls-1, .cls-2 {
        stroke-width: 0px;
      }

      .cls-2 {
        fill: #ef3f2f;
      }
    </style>
  </defs>
  <g id="Layer_1-2" data-name="Layer 1">
    <g>
      <rect class="cls-1" width="165.9" height="165.9" rx="14.17" ry="14.17"/>
      <path class="cls-2" d="M144.42,77.28l-55.78-55.78c-3.21-3.21-8.42-3.21-11.63,0,0,0,0,0,0,0l-11.58,11.58,14.69,14.69c3.42-1.2,7.33-.38,10.05,2.34,2.64,2.65,3.55,6.58,2.32,10.11l14.16,14.16c3.43-1.18,7.38-.42,10.11,2.32,3.82,3.82,3.82,10.03,0,13.85-3.82,3.82-10.03,3.82-13.85,0-2.87-2.87-3.59-7.11-2.13-10.65l-13.21-13.21v34.76c.96.47,1.84,1.1,2.6,1.85,3.82,3.82,3.82,10.02,0,13.85s-10.02,3.82-13.85,0h0c-3.82-3.82-3.83-10.01-.01-13.83,0,0,0,0,.01-.01.95-.94,2-1.66,3.21-2.14v-35.08c-1.17-.48-2.26-1.19-3.21-2.14-2.81-2.81-3.65-7.04-2.11-10.7l-14.49-14.49-38.25,38.21c-3.21,3.21-3.22,8.42,0,11.63,0,0,0,0,0,0l55.79,55.78c3.21,3.21,8.42,3.21,11.63,0h0s55.53-55.44,55.53-55.44c3.21-3.21,3.22-8.42,0-11.63,0,0,0,0,0,0"/>
    </g>
  </g>
</svg>