<?xml version="1.0" encoding="UTF-8"?>
<svg id="Layer_2" data-name="Layer 2" xmlns="http://www.w3.org/2000/svg" viewBox="0 0 165.9 165.9">
  <defs>
    <style>
      .cls-1 {
        fill: #f1672a;
      }

      .cls-1, .cls-2, .cls-3, .cls-4, .cls-5, .cls-6 {
        stroke-width: 0px;
      }

      .cls-2 {
        fill: transparent;
      }

      .cls-3 {
        fill: #EEEEEE;
      }

      .cls-4 {
        fill: #ebebeb;
      }

      .cls-5 {
        fill: #fff;
      }

      .cls-6 {
        fill: #e44f26;
      }
    </style>
  </defs>
  <g id="Layer_1-2" data-name="Layer 1">
    <g>
      <rect class="cls-2" width="165.9" height="165.9" rx="14.17" ry="14.17"/>
      <g>
        <path class="cls-6" d="M39.54,145.82l-9.66-108.33h106.13l-9.67,108.32-43.46,12.05-43.34-12.03Z"/>
        <path class="cls-1" d="M82.95,148.64l35.12-9.74,8.26-92.56h-43.38v102.3Z"/>
        <path class="cls-4" d="M82.95,86.52h-17.58l-1.21-13.61h18.79v-13.29h-33.32l.32,3.57,3.27,36.61h29.73v-13.29ZM82.95,121.03l-.06.02-14.8-4-.95-10.6h-13.34l1.86,20.86,27.22,7.56.06-.02v-13.82Z"/>
        <path class="cls-3" d="M39.76,8.05h6.75v6.67h6.18v-6.67h6.75v20.2h-6.75v-6.76h-6.18v6.76h-6.75s0-20.2,0-20.2ZM68.32,14.75h-5.94v-6.7h18.64v6.7h-5.95v13.5h-6.75s0-13.5,0-13.5ZM83.98,8.05h7.04l4.33,7.1,4.33-7.1h7.04v20.2h-6.73v-10.01l-4.64,7.18h-.12l-4.65-7.18v10.01h-6.61V8.05h0ZM110.08,8.05h6.75v13.52h9.5v6.68h-16.25V8.05Z"/>
        <path class="cls-5" d="M82.9,86.52v13.29h16.36l-1.54,17.23-14.82,4v13.82l27.24-7.55.2-2.25,3.12-34.98.32-3.57h-30.88ZM82.9,59.63v13.29h32.09l.27-2.99.61-6.73.32-3.57h-33.28Z"/>
      </g>
    </g>
  </g>
</svg>