<?xml version="1.0" encoding="UTF-8"?>
<svg id="Layer_2" data-name="Layer 2" xmlns="http://www.w3.org/2000/svg" viewBox="0 0 165.9 165.9">
  <defs>
    <style>
      .cls-1 {
        fill: transparent;
      }

      .cls-1, .cls-2, .cls-3 {
        stroke-width: 0px;
      }

      .cls-2 {
        fill: #f1dc4f;
      }

      .cls-3 {
        fill: #333431;
      }
    </style>
  </defs>
  <g id="Layer_1-2" data-name="Layer 1">
    <g>
      <rect class="cls-1" width="165.9" height="165.9" rx="14.17" ry="14.17"/>
      <g>
        <path class="cls-2" d="M16.73,16.73h132.44v132.44H16.73V16.73Z"/>
        <path class="cls-3" d="M138.33,117.58c-.97-6.04-4.91-11.12-16.58-15.85-4.05-1.86-8.57-3.2-9.92-6.27-.48-1.79-.54-2.8-.24-3.88.87-3.51,5.06-4.61,8.38-3.6,2.14.72,4.17,2.37,5.39,5,5.71-3.7,5.7-3.68,9.69-6.22-1.46-2.27-2.24-3.31-3.2-4.28-3.44-3.84-8.12-5.82-15.61-5.67l-3.9.5c-3.74.94-7.3,2.91-9.39,5.54-6.27,7.11-4.48,19.56,3.15,24.69,7.52,5.64,18.56,6.92,19.97,12.2,1.37,6.46-4.75,8.55-10.83,7.81-4.48-.93-6.97-3.21-9.67-7.35q-4.96,2.87-10.06,5.8c1.21,2.64,2.48,3.84,4.51,6.13,9.59,9.73,33.6,9.25,37.91-5.48.17-.51,1.33-3.88.4-9.08ZM88.73,77.6h-12.39l-.05,32.03c0,6.81.35,13.05-.76,14.97-1.81,3.76-6.51,3.3-8.65,2.57-2.18-1.07-3.29-2.59-4.57-4.74-.35-.62-.62-1.1-.71-1.13l-10.07,6.17c1.67,3.44,4.14,6.42,7.3,8.36,4.72,2.83,11.06,3.7,17.7,2.18,4.32-1.26,8.04-3.86,10-7.83,2.82-5.2,2.22-11.49,2.19-18.45.06-11.36,0-22.71,0-34.1Z"/>
      </g>
    </g>
  </g>
</svg>