<?xml version="1.0" encoding="UTF-8"?>
<svg id="Layer_2" data-name="Layer 2" xmlns="http://www.w3.org/2000/svg" xmlns:xlink="http://www.w3.org/1999/xlink" viewBox="0 0 165.9 165.9">
  <defs>
    <style>
      .cls-1 {
        fill: url(#linear-gradient);
      }

      .cls-1, .cls-2, .cls-3, .cls-4, .cls-5 {
        stroke-width: 0px;
      }

      .cls-2 {
        fill: transparent;
      }

      .cls-3 {
        fill: url(#linear-gradient-2);
      }

      .cls-4 {
        fill: #EEEEEE;
      }

      .cls-5 {
        fill: url(#radial-gradient);
      }
    </style>
    <linearGradient id="linear-gradient" x1="-2835.87" y1="-17525.73" x2="-2688.57" y2="-17612.77" gradientTransform="translate(167.05 779.93) scale(.04)" gradientUnits="userSpaceOnUse">
      <stop offset="0" stop-color="#909ca9"/>
      <stop offset="1" stop-color="#eeeded"/>
    </linearGradient>
    <linearGradient id="linear-gradient-2" x1="-2832.56" y1="-19166.19" x2="-2714.04" y2="-19166.19" gradientTransform="translate(167.05 779.93) scale(.04)" gradientUnits="userSpaceOnUse">
      <stop offset="0" stop-color="#949fab"/>
      <stop offset="1" stop-color="#dcdee1"/>
    </linearGradient>
    <radialGradient id="radial-gradient" cx="-10056.15" cy="323.86" fx="-10056.15" fy="323.86" r="157.36" gradientTransform="translate(-288.41 40.77) rotate(-171.46) scale(.04 .07) skewX(-.19)" gradientUnits="userSpaceOnUse">
      <stop offset="0" stop-color="#ef392d"/>
      <stop offset="1" stop-color="#a91f24"/>
    </radialGradient>
  </defs>
  <g id="Layer_1-2" data-name="Layer 1">
    <g>
      <rect class="cls-2" width="165.9" height="165.9" rx="14.17" ry="14.17"/>
      <g>
        <g>
          <path class="cls-1" d="M92.23,80.38l-15.48,5.05-13.47,5.94-3.77.99c-.96.91-1.97,1.84-3.05,2.77-1.19,1.03-2.31,1.97-3.16,2.64-.95.75-2.35,2.15-3.07,3.04-1.06,1.33-1.91,2.75-2.27,3.84-.64,1.97-.33,3.95.91,5.79,1.59,2.34,4.76,4.73,8.46,6.35,1.88.83,5.05,1.9,7.44,2.49,3.97,1.01,11.64,2.09,15.87,2.26.85.04,2,.04,2.05,0,.09-.06.75-1.31,1.51-2.87,2.6-5.3,4.47-10.27,5.49-14.52.61-2.57,1.09-6,1.4-10.06.08-1.14.12-4.94.05-6.22-.11-2.11-.29-3.81-.58-5.49-.05-.25-.06-.47-.04-.48.05-.04.19-.08,2.09-.63l-.39-.91h0s0,0,0,0h0ZM88.69,82.46c.14,0,.51,3.59.61,5.86.02.48.01.8-.01.8-.09,0-1.98-1.11-3.32-1.95-1.17-.74-3.39-2.21-3.74-2.49-.12-.08-.11-.09.85-.42,1.63-.55,5.49-1.79,5.62-1.79ZM80.81,85.05c.11,0,.37.15,1.02.55,2.41,1.51,5.69,3.33,7.09,3.94.43.19.48.12-.51.8-2.13,1.45-4.79,2.88-8.04,4.32-.57.26-1.05.46-1.06.46-.02,0,.05-.29.14-.64.78-2.91,1.23-5.86,1.25-8.23q.01-1.17.12-1.21s-.01.01,0,.01h0ZM79.18,85.67c.07.07.02,2.69-.07,3.4-.21,1.71-.54,3.3-1.08,5.09-.13.43-.25.8-.27.82-.05.06-1.65-1.51-2.18-2.12-.91-1.05-1.63-2.11-2.15-3.14-.27-.53-.69-1.56-.66-1.59.19-.13,6.35-2.52,6.4-2.47h0ZM71.53,88.68s.02,0,.04.01c.02.02.11.21.18.42.37,1.02,1.22,2.52,1.94,3.48.8,1.05,1.84,2.18,2.7,2.91.28.23.54.46.57.49.07.07.09.06-1.81.78-2.21.84-4.62,1.68-7.38,2.57-.66.21-1.32.43-1.98.64-.11.04-.07-.02.23-.5,1.37-2.14,3.45-6.34,4.62-9.31.2-.51.4-1.03.43-1.15.05-.16.11-.22.26-.3.08-.02.16-.05.2-.05h0ZM69.19,89.65s-.56,1.28-1.15,2.42c-1.14,2.21-2.38,4.39-4.04,7.03-.28.46-.55.88-.58.92-.06.08-.08.06-.27-.3-.4-.78-.73-1.79-.9-2.71-.18-.91-.14-2.5.06-3.49.15-.73.14-.71.49-.89,1.5-.76,6.34-3.03,6.39-2.98h0ZM89.37,90.47v.49c0,2.61-.28,6.19-.69,8.8-.07.46-.13.83-.14.84,0,0-.34-.09-.74-.21-1.76-.55-3.66-1.36-5.38-2.3-1.14-.62-2.78-1.64-2.74-1.69.01-.01.5-.27,1.08-.57,2.29-1.19,4.49-2.48,6.4-3.76.71-.48,1.79-1.25,2.02-1.46l.19-.14h0ZM60.35,93.93s.04.09-.04.51c-.05.3-.11.87-.13,1.25-.09,1.71.19,2.97,1.03,4.7.23.48.42.88.41.89-.08.07-7.83,2.34-10.26,3.01-.73.2-1.36.37-1.4.39-.08.02-.09.01-.06-.19.27-1.72,1.58-3.97,3.4-5.86,1.22-1.26,2.19-2,3.85-2.95,1.19-.68,3.03-1.7,3.17-1.74,0-.01.01-.01.02-.01h0ZM78.61,97.2s.29.14.63.34c2.5,1.45,5.99,2.8,8.96,3.49l.27.06-.37.21c-1.56.87-6.67,3-11.9,4.95-.76.28-1.51.56-1.65.62-.14.06-.27.09-.27.08s.21-.42.48-.92c1.46-2.74,2.94-6.07,3.69-8.39.09-.22.15-.42.16-.43h0ZM76.75,97.81s-.08.26-.2.54c-1.02,2.47-2.35,5.16-4.06,8.18-.43.77-.8,1.39-.81,1.39s-.36-.21-.78-.47c-2.48-1.52-4.68-3.39-6.12-5.21l-.21-.26,1.06-.29c3.81-1.04,7.06-2.16,10.27-3.55.46-.19.83-.34.84-.34ZM88.31,101.84s.01.01,0,0c.01.27-.59,2.68-1.08,4.42-.41,1.46-.76,2.61-1.4,4.63-.28.89-.53,1.63-.54,1.63s-.08-.01-.15-.03c-3.48-.63-6.59-1.51-9.51-2.68-.82-.33-1.99-.85-2.06-.91-.02-.02.68-.35,1.57-.74,5.32-2.33,10.85-4.97,12.74-6.11.22-.14.4-.21.43-.21h0ZM61.62,102.76s-1.46,2.16-3.55,5.08c-.73,1.02-1.57,2.21-1.88,2.66-.32.44-.8,1.15-1.06,1.57l-.49.76-.53-.44c-.62-.51-1.7-1.61-2.18-2.22-1.01-1.25-1.68-2.57-1.95-3.78-.13-.56-.13-.84-.01-.88.18-.05,3.3-.78,6.22-1.46,1.63-.37,3.51-.82,4.19-.98.68-.16,1.23-.29,1.24-.29h0ZM63.11,103.33l.37.42c1.69,1.88,3.41,3.28,5.49,4.49.37.21.66.4.63.41-.08.06-7.23,2.6-10.54,3.74-1.86.66-3.39,1.18-3.4,1.18s-.12-.07-.23-.15l-.21-.15.34-.49c1.1-1.59,2.48-3.33,5.49-6.96l2.07-2.49h0ZM72.45,110.01s.53.18,1.16.41c1.52.57,2.73.94,4.34,1.35,1.99.5,4.87.99,6.56,1.13.26.02.4.05.35.08-.08.05-1.8.62-3.07,1.02-2.01.63-8.16,2.45-13.16,3.88-.92.27-1.72.49-1.77.5-.12.02-.5-.08-.5-.13,0-.02.28-.39.62-.78,1.68-2.01,3.36-4.26,4.75-6.39.39-.59.71-1.06.71-1.08h0ZM70.39,110.07s-.82,1.35-2.27,3.64c-.62.97-1.31,2.07-1.56,2.46-.23.37-.58.96-.78,1.29l-.34.6-.18-.05c-.42-.12-3.38-1.16-4.17-1.47-.97-.39-1.98-.85-2.73-1.25-.94-.5-2.11-1.25-2.01-1.28.02-.01,1.63-.44,3.56-.97,5.12-1.39,7.97-2.2,9.83-2.78.34-.11.63-.19.64-.18h0ZM84.96,113.49h.01c.05.12-1.85,5.38-2.54,7.04-.15.37-.21.47-.29.46-.2-.01-2.95-.4-4.62-.64-2.91-.44-7.8-1.3-9.03-1.58l-.28-.06,1.74-.4c3.74-.84,5.55-1.3,7.37-1.86,2.31-.7,4.59-1.58,6.89-2.66.36-.16.67-.29.75-.3h0Z"/>
          <path class="cls-3" d="M76.27,44.3c-.26-.03-4.41,1.46-7.09,2.55-3.62,1.47-6.42,2.88-8.16,4.1-.64.46-1.45,1.26-1.58,1.58-.05.12-.07.26-.07.4l1.57,1.49,3.73,1.19,8.88,1.59,10.16,1.74.11-.88s-.06-.01-.09-.01l-1.33-.21-.27-.48c-1.38-2.43-2.9-5.45-3.79-7.49-.69-1.58-1.35-3.4-1.71-4.72-.2-.8-.22-.84-.35-.85h0s0,0,0,0h0ZM76.08,44.9h.01s.06.34.11.73c.2,1.64.56,3.22,1.13,4.93.43,1.29.43,1.22-.07,1.06-1.19-.33-6.54-1.25-10.41-1.79-.62-.08-1.15-.16-1.15-.18-.05-.05,2.8-1.53,4.05-2.12,1.6-.74,6-2.57,6.33-2.63ZM64.8,50.14l.46.15c2.48.84,8.72,2.04,12.16,2.32.39.04.71.07.73.07.01.01-.32.19-.74.39-1.66.83-3.49,1.85-4.75,2.63-.37.23-.71.42-.76.42s-.29-.05-.55-.08l-.47-.07-1.17-1.15c-2.06-2-3.67-3.55-4.29-4.13l-.61-.55ZM64.33,50.5l1.65,2.06c.9,1.13,1.81,2.25,2.01,2.49.2.25.36.44.35.46-.05.04-2.39-.42-3.63-.7-1.28-.29-1.8-.43-2.59-.68l-.64-.21v-.16c.01-.78,1.01-1.95,2.69-3.15,0,0,.15-.11.15-.11ZM78.35,53.31s.11.11.25.42c.4.88,1.64,3.24,1.94,3.7.09.15.26.16-1.39-.11-3.97-.64-5.24-.85-5.24-.88,0-.01.12-.09.27-.18,1.23-.68,2.47-1.54,3.57-2.47.27-.22.51-.43.56-.47.01-.02.04-.04.05-.02Z"/>
          <path class="cls-5" d="M59.52,52.36s-.26.41-.01,1.02c.15.37.6.83,1.1,1.3,0,0,5.21,5.08,5.84,5.8,2.88,3.32,4.13,6.6,4.25,11.12.07,2.9-.48,5.45-1.85,8.41-2.43,5.31-7.57,11.17-15.49,17.68l1.16-.39c.75-.56,1.77-1.16,4.15-2.47,5.51-3.02,11.71-5.79,19.32-8.65,10.95-4.12,28.96-8.94,39.21-10.51l1.06-.16-.16-.26c-.94-1.45-1.58-2.35-2.35-3.31-2.25-2.78-4.97-5.04-8.31-6.92-4.59-2.56-10.52-4.56-18.03-6.05-1.42-.28-4.53-.82-7.06-1.21-5.36-.83-8.82-1.4-12.64-2.06-1.37-.23-3.42-.59-4.77-.88-.7-.15-2.05-.47-3.1-.83-.84-.33-2.06-.66-2.32-1.65h0ZM62.54,55.29s.2.06.44.14c.44.15,1.02.33,1.7.51.51.14,1.03.28,1.54.41.7.18,1.29.34,1.3.34.08.08,1.26,3.86,1.66,5.31.15.55.27,1.02.26,1.02-.01.01-.14-.19-.29-.46-1.37-2.41-3.53-4.86-6.04-6.82-.33-.23-.57-.44-.57-.46ZM68.3,56.88c.06,0,.32.04.63.11,1.99.44,5.56,1.12,7.84,1.51.39.06.69.13.69.15s-.14.11-.32.2c-.39.2-1.94,1.12-2.46,1.47-1.3.87-2.47,1.8-3.31,2.64-.34.34-.63.62-.63.62,0,0-.07-.2-.13-.44-.42-1.63-1.3-4.04-2.09-5.73-.13-.27-.23-.51-.23-.54,0,.02,0,.01.01.01h0ZM78.43,58.81c.07.02.19.42.42,1.3.43,1.7.63,3.59.56,5.36-.02.49-.05.95-.07,1.01l-.04.12-.61-.2c-1.25-.4-3.29-.99-5.03-1.49-.99-.27-1.8-.51-1.8-.54,0-.07,1.45-1.52,2.07-2.07,1.18-1.04,4.39-3.52,4.49-3.49h0ZM79.24,58.93s4.84.8,7.03,1.22c1.63.32,3.99.81,4.13.87.07.02-.18.16-.96.51-3.09,1.39-5.38,2.64-7.66,4.17-.6.4-1.1.73-1.11.73s-.02-.34-.02-.75c0-2.22-.44-4.47-1.26-6.37-.08-.19-.15-.36-.14-.37ZM91.68,61.38s-.12.98-.26,1.54c-.42,1.74-1.56,4.33-2.95,6.76-.25.43-.47.78-.49.8-.02.01-.34-.16-.7-.37-1.36-.8-2.9-1.54-4.59-2.25-.47-.2-.88-.36-.89-.39-.08-.07,3.69-2.56,5.67-3.76,1.58-.96,4.15-2.39,4.2-2.34ZM92.56,61.52c.11,0,2.23.59,3.35.91,2.75.82,5.91,1.98,7.97,2.91l.85.39-.6.14c-5.03,1.16-9.34,2.49-13.49,4.18-.34.14-.64.26-.67.26s.09-.27.25-.6c1.25-2.66,2.06-5.43,2.26-7.79.01-.22.05-.4.08-.4h0ZM71.36,66.39s1.66.35,2.54.6c1.33.37,4.17,1.32,4.17,1.39,0,.01-.32.28-.69.61-1.53,1.28-3.01,2.62-4.77,4.33-.53.5-.97.91-.99.91s-.04-.07-.02-.16c.27-1.97.21-4.49-.16-7.06-.04-.33-.07-.61-.06-.62ZM105.54,66.43s-.75,1.24-1.24,1.93c-.7,1.01-1.73,2.34-4.06,5.27-1.23,1.54-2.61,3.29-3.07,3.87-.47.58-.85,1.08-.87,1.08s-.16-.21-.33-.47c-1.31-1.97-2.88-3.69-4.74-5.23-.35-.29-.74-.61-.87-.7-.13-.09-.23-.19-.23-.2,0-.04,1.99-.89,3.5-1.5,2.64-1.08,6.25-2.36,8.95-3.19,1.42-.44,2.93-.88,2.95-.85h0ZM106.44,66.66s.33.13.67.33c2.84,1.63,5.63,3.72,7.83,5.87.62.61,2.15,2.2,2.13,2.21,0,0-.54.05-1.17.09-4.93.37-11.23,1.42-17.29,2.88-.41.09-.77.18-.8.18s.43-.46,1.01-1.01c3.56-3.43,5.18-5.59,7.1-9.45.27-.57.5-1.06.53-1.1t0,0h0ZM80.38,69.33c.16.03,1.69.75,2.83,1.32,1.05.53,2.63,1.37,2.71,1.44.01.01-.55.3-1.24.64-2.2,1.1-4.08,2.14-6.05,3.33-.56.34-1.03.62-1.04.62-.05,0-.04-.05.28-.62,1.05-1.92,1.9-4.21,2.38-6.45.05-.18.09-.29.13-.29h0ZM78.86,69.61s-.36,1.47-.61,2.26c-.48,1.49-1.29,3.35-2.07,4.75-.19.33-.47.81-.62,1.08l-.29.47-.66-.63c-.76-.74-1.38-1.19-2.18-1.6-.32-.16-.56-.3-.56-.33,0-.09,2-1.91,3.53-3.22,1.1-.95,3.42-2.81,3.45-2.77h0ZM88.17,73.43l.57.37c1.31.85,2.85,1.99,4.04,2.98.67.55,1.95,1.71,2.21,1.99l.14.15-.95.27c-5.36,1.49-9.5,2.81-14.33,4.59-.54.2-.99.36-1.03.36-.07,0-.13.06,1.08-1.05,3.09-2.84,5.83-5.98,7.86-9.03l.41-.63h0ZM85.72,74.04s-1.58,2.28-2.54,3.56c-1.15,1.52-3.18,4.07-4.59,5.73-.58.69-1.09,1.26-1.11,1.28-.04.01-.05-.16-.05-.43,0-1.42-.36-2.93-.99-4.21-.27-.54-.32-.67-.26-.73.22-.2,3.63-2.14,5.78-3.3,1.45-.77,3.72-1.92,3.76-1.9h0ZM70.93,77.67s.3.14.61.3c.75.41,1.42.87,2.01,1.36.02.02-.28.27-.68.56-1.11.8-2.8,2.07-3.78,2.86-1.03.82-1.06.84-.95.67.77-1.18,1.16-1.85,1.57-2.7.36-.76.73-1.66.98-2.45.09-.34.21-.6.23-.6h0ZM74.87,80.76c.06-.01.13.09.44.56.67.99,1.18,2.33,1.31,3.4l.02.23-1.6.62c-2.87,1.11-5.51,2.21-7.3,3.03-.5.23-1.38.66-1.95.94-.57.29-1.04.51-1.04.5s.36-.28.81-.61c3.5-2.54,6.53-5.32,8.8-8.11.25-.29.47-.56.49-.57h.02s0,0,0,0ZM73.06,81.2s-1.29,1.56-2.2,2.48c-2.26,2.31-4.49,4.11-7.27,5.86-.35.22-.67.42-.7.44-.08.05.02-.07,1.24-1.39.77-.83,1.36-1.53,2.02-2.4.44-.57.53-.66,1.17-1.11,1.72-1.24,5.69-3.93,5.73-3.88Z"/>
        </g>
        <path class="cls-4" d="M38.06,74.21c-.22,0-.43.02-.65.02-4.36.23-7.3,2.15-9.02,5.9-1.47,3.39-1.31,7.82.02,11.23,1.54,3.33,4.03,5.09,8.19,5.75.88.14,1.47.63,3.18,2.62l2.1,2.46h3.8l-2.53-2.55c-1.4-1.4-2.53-2.62-2.53-2.72s.53-.34,1.18-.54c2.13-.65,3.91-2.29,5.15-4.82,1-2.03,1.15-2.66,1.29-5.18.38-7.52-3.59-12.21-10.19-12.16h0ZM41.4,93.87c-1.85.9-4.54,1.08-6.29.43-1.81-.67-3.57-2.55-4.36-4.68-.88-2.33-.75-6.63.25-8.57,1.61-3.08,3.75-4.5,6.87-4.5,4.63,0,7.26,2.83,7.6,8.16.27,4.45-1.22,7.78-4.07,9.16h0ZM107.11,80.63c-1.6,0-2.82.65-3.64,1.92l-.65,1.01v-2.62h-2.76v15.71h2.76v-5.02c0-4.59.06-5.13.7-6.39.88-1.72,2.41-2.58,3.88-2.17l.99.29v-2.72h-1.27ZM90.89,80.49c-.54,0-1.11.07-1.69.2-3.7.97-5.78,4.5-5.65,8.14,0,3.05.59,4.57,2.06,6.17,3.01,2.47,5.74,2.67,9.41,1.34.63-.27,1.31-.58,1.31-.58v-2.47l-1.31.68c-2.98,1.3-5.22,1.3-7.01-.23-1.15-1.17-1.65-2.56-1.88-4.16h11.14v-2.12c0-4.32-2.6-7.05-6.38-6.98h0,0ZM86.39,87.38s.41-2.69,1.94-3.75c.73-.52,1.58-.77,2.4-.77s1.65.27,2.33.79c1.4,1.08,1.63,3.71,1.63,3.71h-8.3v.02h0ZM19.81,84.55c-2.99-1.81-4.32-3.12-4.16-4.66.46-4.27,5.74-3.68,8.66-2.06l.02-2.87s-1.61-.7-3.93-.74c-3.55-.05-5.84,1.11-6.92,3.48-1.58,3.5-.18,6.13,4.87,9.07,2.84,1.65,4.09,3.08,4.09,4.65,0,3.23-3.89,4.36-7.91,2.33-.83-.41-1.53-.75-1.56-.75-.14.92-.07,3.11-.07,3.11,0,0,1.23.52,3.08.88,4.59.92,8.77-1.24,9.16-4.73.34-3.28-.84-5-5.34-7.69,0,0,0,0,0,0ZM131.56,80.45c-.54,0-1.11.07-1.71.2-3.69.97-5.77,4.5-5.63,8.14,0,3.04.59,4.55,2.06,6.15,3.01,2.47,5.74,2.67,9.43,1.35.63-.27,1.31-.57,1.31-.57v-2.48l-1.31.68c-2.98,1.29-5.22,1.29-7.01-.23-1.15-1.16-1.65-2.55-1.88-4.16h11.12v-2.12c0-4.3-2.6-7.03-6.38-6.95h0s0,0,0,0ZM127.05,87.34s.42-2.69,1.94-3.77c.73-.52,1.58-.77,2.4-.77s1.65.27,2.33.79c1.4,1.08,1.63,3.73,1.63,3.73h-8.3v.02s0,0,0,0ZM76.43,84.58c-2.99-1.81-4.32-3.12-4.16-4.66.46-4.27,5.74-3.68,8.66-2.06l.02-2.87s-1.61-.7-3.93-.73c-3.55-.05-5.84,1.11-6.92,3.48-1.58,3.5-.16,6.13,4.88,9.07,2.83,1.65,4.09,3.06,4.09,4.63,0,3.23-3.89,4.37-7.91,2.33-.82-.41-1.52-.75-1.56-.75-.14.91-.07,3.11-.07,3.11,0,0,1.22.5,3.06.88,4.59.92,8.77-1.23,9.17-4.73.34-3.27-.84-4.99-5.33-7.68h0s0,0,0,0ZM147.78,80.6c-1.6,0-2.83.65-3.64,1.92l-.65,1v-2.62h-2.76v15.71h2.76v-5.02c0-4.59.06-5.13.7-6.38.88-1.72,2.41-2.58,3.88-2.17l.99.29v-2.73h-1.27,0ZM54.47,84.49v-10.01h-2.78v22.16h11.71v-2.62h-8.92v-9.54h0ZM118.86,87.61l-2.29,5.97-2.21-6-2.24-6.65h-2.85c1.85,5.24,3.86,10.56,5.88,15.72.88.02,1.76,0,2.64,0l3.1-7.78,3.16-7.94h-2.72s-1.2,3.15-2.46,6.69h0s0,0,0,0ZM60.89,68.44c.45,0,.82-.14,1.13-.45.3-.3.46-.66.46-1.11s-.16-.82-.46-1.11c-.31-.29-.66-.43-1.11-.43s-.83.14-1.13.45c-.31.3-.45.68-.45,1.11s.14.83.45,1.11c.29.29.66.43,1.11.43h0s0,0,0,0ZM59.9,65.89c.27-.27.59-.39,1.01-.39.39,0,.72.12.99.39.27.27.41.59.41.99s-.14.74-.41,1c-.27.27-.6.39-.99.39s-.72-.12-.99-.39c-.27-.27-.41-.61-.41-1s.12-.72.39-.99ZM60.56,67.02h.18c.13,0,.25.12.36.36l.22.49h.34l-.27-.54c-.11-.22-.22-.34-.34-.38.16-.04.28-.09.37-.2.09-.09.12-.22.12-.36,0-.16-.05-.29-.16-.38-.12-.1-.32-.16-.58-.16h-.57v2.01h.29v-.84h.03s0,0,0,0ZM60.56,66.09h.25c.18,0,.31.04.38.09.07.05.09.12.09.25,0,.23-.14.34-.41.34h-.31v-.68h0ZM14.57,66.85c0-.7-.02-1.22-.04-1.53h.02c.07.36.16.63.23.81l2.67,5.97h.45l2.67-6.03c.07-.16.14-.41.23-.75h.02c-.05.6-.07,1.11-.07,1.53v5.27h.91v-7.83h-1.15l-2.46,5.45c-.09.22-.22.54-.38.97h-.04c-.05-.21-.18-.53-.36-.93l-2.4-5.5h-1.22v7.83h.88v-5.25s.01,0,.01,0ZM23.68,66.86h.79v4.88h-.79v-4.88ZM24.07,65.07c.16,0,.3-.06.41-.16.11-.11.18-.25.18-.41s-.05-.3-.18-.41c-.11-.11-.25-.16-.42-.16s-.3.06-.41.16c-.11.11-.18.25-.18.41,0,.18.06.3.18.41.12.11.25.16.41.16,0,0,0,0,0,0ZM30.1,71.85v-.86c-.43.32-.9.48-1.38.48-.58,0-1.04-.2-1.38-.58-.34-.37-.52-.89-.52-1.54s.18-1.22.56-1.63c.36-.39.83-.59,1.4-.59.47,0,.91.14,1.33.43v-.92c-.38-.2-.81-.29-1.29-.29-.9,0-1.6.29-2.12.84-.52.56-.79,1.31-.79,2.22,0,.81.23,1.49.72,2.01.5.53,1.15.81,1.94.81.61-.02,1.11-.14,1.54-.4ZM32.36,69.25c0-.64.14-1.16.41-1.52.25-.32.56-.49.92-.49.3,0,.52.06.68.18v-.93c-.12-.05-.3-.07-.53-.07-.32,0-.61.11-.86.31-.27.21-.48.53-.61.95h-.02v-1.15h-.89v5.59h.9v-2.87h.02ZM37.51,72.23c.84,0,1.52-.27,2.03-.81.5-.53.75-1.25.75-2.15s-.23-1.61-.7-2.13c-.46-.52-1.11-.77-1.95-.77s-1.52.25-2.03.74c-.54.53-.82,1.29-.82,2.26,0,.84.23,1.54.72,2.06.5.54,1.17.81,2.01.81h0s0,0,0,0ZM36.23,67.67c.34-.36.79-.54,1.34-.54s1.01.18,1.33.54c.32.38.48.91.48,1.63s-.14,1.22-.45,1.58c-.3.38-.75.58-1.34.58s-1.02-.2-1.36-.58c-.34-.38-.5-.9-.5-1.58-.03-.68.14-1.23.5-1.63ZM44.21,71.74c.34-.3.52-.68.52-1.15,0-.41-.14-.75-.41-1.02-.22-.22-.56-.41-1.04-.61-.43-.18-.7-.34-.84-.47-.14-.14-.23-.32-.23-.58,0-.23.09-.41.27-.56.18-.14.41-.21.72-.21.48,0,.9.13,1.27.4v-.9c-.36-.18-.75-.27-1.2-.27-.58,0-1.06.16-1.42.46-.38.3-.56.7-.56,1.16,0,.41.12.75.36,1,.2.21.53.43,1,.63.45.2.75.38.92.52.16.14.23.32.23.53,0,.52-.36.79-1.06.79-.54,0-1.02-.18-1.45-.53v.97c.39.23.86.34,1.38.34.66-.03,1.18-.2,1.54-.52h0ZM48.48,66.36c-.84,0-1.52.25-2.03.74-.53.53-.82,1.29-.82,2.26,0,.84.23,1.54.72,2.06.5.54,1.17.81,2.01.81s1.52-.27,2.03-.81c.5-.53.75-1.25.75-2.15s-.23-1.61-.7-2.13c-.49-.52-1.13-.77-1.95-.77h0s0,0,0,0ZM50.22,69.3c0,.68-.14,1.22-.45,1.58-.3.38-.75.58-1.35.58s-1.02-.2-1.36-.58c-.34-.38-.5-.9-.5-1.58,0-.72.18-1.27.54-1.65.34-.36.79-.54,1.34-.54s1,.18,1.32.54c.29.39.45.93.45,1.65h0,0ZM52.64,72.1h.89v-4.84h1.31v-.75h-1.31v-.86c0-.79.3-1.18.93-1.18.21,0,.43.05.59.14v-.81c-.16-.07-.38-.09-.65-.09-.48,0-.88.14-1.2.45-.38.36-.58.82-.58,1.45v.92h-.95v.75h.95v4.82h0ZM56.32,70.57c0,1.09.48,1.65,1.47,1.65.36,0,.63-.06.84-.19v-.77c-.16.12-.36.18-.58.18-.3,0-.52-.07-.64-.23-.13-.16-.2-.43-.2-.81v-3.16h1.42v-.75h-1.42v-1.65c-.31.11-.61.2-.9.29v1.36h-.97v.75h.97v3.32h0ZM152.55,80.88c-.3-.29-.66-.43-1.11-.43s-.83.14-1.13.45c-.3.3-.45.68-.45,1.11s.14.82.45,1.11c.3.29.68.43,1.13.43s.82-.14,1.13-.45c.3-.31.46-.66.46-1.11-.02-.45-.18-.83-.48-1.11h0ZM152.41,83c-.27.27-.59.39-.99.39s-.72-.12-.99-.39c-.27-.27-.41-.61-.41-1.01s.12-.72.39-.99c.27-.27.59-.39,1-.39.39,0,.72.12.99.39.27.27.41.6.41.99,0,.42-.12.74-.41,1.01ZM151.6,82.09c.16-.04.29-.11.38-.2.09-.09.12-.22.12-.36,0-.16-.05-.29-.16-.38-.12-.1-.32-.16-.58-.16h-.57v2.01h.29v-.84h.18c.12,0,.25.12.36.36l.21.48h.34l-.27-.54c-.09-.23-.2-.34-.31-.38h0s0,0,0,0ZM151.41,81.91h-.31v-.68h.25c.18,0,.3.03.38.09.07.05.09.12.09.25,0,.23-.14.34-.41.34h0s0,0,0,0ZM101.38,66.27h.25v-2.01h.66v-.25h-1.58v.25h.66v2.01h0ZM102.9,64.76c0-.2,0-.36-.01-.45.02.11.05.18.07.23l.77,1.72h.12l.77-1.74c.02-.05.04-.12.07-.22-.02.18-.02.32-.02.43v1.52h.27v-2.26h-.32l-.7,1.56c-.02.06-.07.16-.11.29h-.02c-.01-.07-.05-.14-.1-.27l-.7-1.58h-.36v2.26h.25v-1.51h.01s0,0,0,0Z"/>
      </g>
    </g>
  </g>
</svg>