<?xml version="1.0" encoding="UTF-8"?>
<svg id="Layer_2" data-name="Layer 2" xmlns="http://www.w3.org/2000/svg" viewBox="0 0 165.9 165.9">
  <defs>
    <style>
      .cls-1 {
        fill: transparent;
      }

      .cls-1, .cls-2, .cls-3 {
        stroke-width: 0px;
      }

      .cls-2 {
        fill: #EEEEEE;
      }

      .cls-3 {
        fill: #87c540;
      }
    </style>
  </defs>
  <g id="Layer_1-2" data-name="Layer 1">
    <g>
      <rect class="cls-1" width="165.9" height="165.9" rx="14.17" ry="14.17"/>
      <g>
        <g>
          <path class="cls-3" d="M144.17,76.98c-.35,0-.7.07-1.01.25l-9.67,5.58c-.63.36-1.01,1.04-1.01,1.77v11.14c0,.72.38,1.4,1.01,1.76l2.52,1.46c1.23.6,1.68.6,2.24.6,1.82,0,2.85-1.1,2.85-3.02v-11c0-.16-.13-.27-.29-.27h-1.21c-.16,0-.29.11-.29.27v11c0,.85-.88,1.7-2.32.98l-2.63-1.54c-.09-.05-.16-.14-.16-.25v-11.14c0-.11.07-.21.16-.27l9.65-5.56c.09-.05.2-.05.29,0l9.65,5.56c.09.06.16.16.16.27v11.14c0,.11-.05.22-.14.27l-9.67,5.56c-.08.05-.2.05-.29,0l-2.48-1.48c-.08-.04-.17-.04-.25,0-.69.39-.81.43-1.46.66-.16.06-.4.14.08.41l3.24,1.91c.31.18.65.27,1.01.27.35,0,.7-.09,1.01-.27l9.67-5.56c.63-.36,1.01-1.04,1.01-1.76v-11.14c0-.72-.38-1.4-1.01-1.76l-9.67-5.58c-.3-.17-.65-.25-1.01-.25h0Z"/>
          <path class="cls-3" d="M146.75,84.94c-2.75,0-4.39,1.17-4.39,3.12,0,2.11,1.63,2.69,4.27,2.96,3.16.31,3.41.77,3.41,1.4,0,1.08-.86,1.54-2.89,1.54-2.55,0-3.12-.64-3.3-1.91-.02-.14-.13-.25-.27-.25h-1.25c-.15,0-.29.13-.29.29,0,1.63.88,3.55,5.11,3.55,3.06,0,4.82-1.2,4.82-3.3s-1.43-2.65-4.39-3.04c-3-.4-3.28-.59-3.28-1.29,0-.58.24-1.35,2.46-1.35,1.98,0,2.72.43,3.02,1.77.03.13.14.23.27.23h1.25c.08,0,.15-.05.21-.1.05-.06.09-.13.08-.21-.19-2.3-1.73-3.39-4.82-3.39h0Z"/>
        </g>
        <path class="cls-2" d="M87.34,62.36c-.11,0-.21.03-.31.08-.19.11-.31.31-.31.53v15.7c0,.15-.07.29-.21.37-.13.08-.3.08-.43,0l-2.57-1.48c-.38-.22-.85-.22-1.23,0l-10.24,5.91c-.38.22-.62.65-.62,1.09v11.82c0,.44.23.85.62,1.07l10.24,5.91c.38.22.85.22,1.23,0l10.24-5.91c.38-.22.62-.63.62-1.07v-29.47c0-.45-.24-.87-.64-1.09l-6.1-3.41c-.1-.05-.2-.06-.31-.06h0ZM21.46,77.12c-.2,0-.38.04-.55.14l-10.24,5.91c-.38.22-.62.63-.62,1.07l.02,15.86c0,.22.11.43.31.53.19.11.43.11.62,0l6.07-3.49c.38-.23.64-.63.64-1.07v-7.41c0-.44.23-.85.62-1.07l2.59-1.5c.19-.11.4-.17.62-.16.21,0,.43.05.62.16l2.59,1.5c.38.22.62.63.62,1.07v7.41c0,.44.25.84.64,1.07l6.07,3.49c.19.11.43.11.62,0,.19-.11.31-.31.31-.53l.02-15.86c0-.44-.23-.85-.62-1.07l-10.24-5.91c-.17-.1-.36-.14-.55-.14h-.12ZM113.49,77.26c-.21,0-.42.05-.62.16l-10.24,5.91c-.38.22-.62.63-.62,1.07v11.82c0,.44.25.85.64,1.07l10.16,5.79c.38.21.83.23,1.21.02l6.16-3.43c.2-.11.33-.31.33-.53,0-.22-.12-.43-.31-.53l-10.3-5.91c-.19-.11-.33-.33-.33-.55v-3.69c0-.22.14-.42.33-.53l3.2-1.85c.19-.11.43-.11.62,0l3.2,1.85c.19.11.31.31.31.53v2.91c0,.22.12.42.31.53.19.11.42.11.62,0l6.14-3.57c.38-.22.62-.63.62-1.07v-2.85c0-.44-.23-.85-.62-1.07l-10.18-5.91c-.19-.11-.4-.16-.62-.16h0ZM82.87,86.09c.05,0,.12.01.16.04l3.51,2.03c.1.06.16.16.16.27v4.06c0,.11-.07.21-.16.27l-3.51,2.03c-.1.05-.21.05-.31,0l-3.51-2.03c-.1-.06-.16-.16-.16-.27v-4.06c0-.11.07-.21.16-.27l3.51-2.03s.09-.04.14-.04h0s0,0,0,0Z"/>
        <path class="cls-3" d="M52.23,77.2c-.21,0-.42.05-.62.16l-10.24,5.89c-.38.22-.62.65-.62,1.09v11.82c0,.44.23.85.62,1.07l10.24,5.91c.38.22.85.22,1.23,0l10.24-5.91c.38-.22.62-.63.62-1.07v-11.82c0-.44-.23-.87-.62-1.09l-10.24-5.89c-.19-.11-.4-.16-.62-.16ZM113.47,87.75s-.09,0-.12.02l-1.97,1.15c-.07.04-.12.12-.12.21v2.26c0,.09.05.16.12.21l1.97,1.13c.07.04.15.04.23,0l1.97-1.13c.07-.04.12-.12.12-.21v-2.26c0-.09-.05-.16-.12-.21l-1.97-1.15s-.06-.02-.1-.02h0Z"/>
      </g>
    </g>
  </g>
</svg>