<?xml version="1.0" encoding="UTF-8"?>
<svg id="Layer_2" data-name="Layer 2" xmlns="http://www.w3.org/2000/svg" viewBox="0 0 165.9 165.9">
  <defs>
    <style>
      .cls-1 {
        fill: transparent;
      }

      .cls-1, .cls-2 {
        stroke-width: 0px;
      }

      .cls-2 {
        fill: #70cff0;
      }
    </style>
  </defs>
  <g id="Layer_1-2" data-name="Layer 1">
    <g>
      <rect class="cls-1" width="165.9" height="165.9" rx="14.17" ry="14.17"/>
      <g>
        <circle class="cls-2" cx="82.95" cy="63.91" r="10.61"/>
        <path class="cls-2" d="M82.95,102.93c8.33,8.1,16.54,12.89,23.16,12.89,2.17,0,4.22-.46,5.93-1.48,5.93-3.42,8.1-11.98,6.05-24.19-.34-2.17-.8-4.34-1.37-6.62,2.28-.68,4.34-1.37,6.39-2.05,11.52-4.45,17.91-10.61,17.91-17.34s-6.39-13.01-17.91-17.34c-2.05-.8-4.11-1.48-6.39-2.05.57-2.28,1.03-4.45,1.37-6.62,1.94-12.43-.23-21.11-6.16-24.53-1.71-1.03-3.76-1.48-5.93-1.48-6.5,0-14.83,4.79-23.16,12.89-8.21-8.1-16.43-12.89-23.04-12.89-2.17,0-4.22.46-5.93,1.48-5.93,3.42-8.1,11.98-6.05,24.19.34,2.17.8,4.34,1.37,6.62-2.28.68-4.34,1.37-6.39,2.05-11.52,4.45-17.91,10.61-17.91,17.34s6.39,13.01,17.91,17.34c2.05.8,4.11,1.48,6.39,2.05-.57,2.28-1.03,4.45-1.37,6.62-1.94,12.21.23,20.88,6.05,24.19,1.71,1.03,3.76,1.48,5.93,1.48,6.62.23,14.83-4.56,23.16-12.55h0ZM76.56,87.53c2.05.11,4.22.11,6.39.11s4.34,0,6.39-.11c-2.05,2.74-4.22,5.25-6.39,7.64-2.17-2.4-4.34-4.91-6.39-7.64ZM62.41,75.78c1.14,1.94,2.17,3.76,3.42,5.59-3.54-.46-6.84-1.03-10.04-1.71,1.03-3.08,2.17-6.27,3.54-9.47.91,1.83,1.94,3.76,3.08,5.59ZM55.8,48.28c3.19-.68,6.5-1.25,10.04-1.71-1.14,1.83-2.28,3.65-3.42,5.59s-2.17,3.76-3.08,5.7c-1.48-3.31-2.62-6.5-3.54-9.58ZM62.07,63.91c1.48-3.08,3.08-6.16,4.91-9.24,1.71-2.97,3.65-5.93,5.59-8.9,3.42-.23,6.84-.34,10.38-.34s7.07.11,10.38.34c2.05,2.97,3.88,5.93,5.59,8.9,1.83,3.08,3.42,6.16,4.91,9.24-1.48,3.08-3.08,6.16-4.91,9.24-1.71,2.97-3.65,5.93-5.59,8.9-3.42.23-6.84.34-10.38.34s-7.07-.11-10.38-.34c-2.05-2.97-3.88-5.93-5.59-8.9-1.83-3.08-3.42-6.16-4.91-9.24ZM106.68,57.75l-3.08-5.7c-1.14-1.94-2.17-3.76-3.42-5.59,3.54.46,6.84,1.03,10.04,1.71-1.03,3.19-2.17,6.39-3.54,9.58ZM106.68,70.07c1.37,3.19,2.51,6.39,3.54,9.47-3.19.68-6.5,1.25-10.04,1.71,1.14-1.83,2.28-3.65,3.42-5.59,1.03-1.71,2.05-3.65,3.08-5.59ZM109.3,109.66c-.91.57-2.05.8-3.31.8-5.59,0-12.55-4.56-19.39-11.41,3.31-3.54,6.5-7.53,9.7-11.98,5.36-.46,10.5-1.25,15.29-2.4.57,2.05.91,4.11,1.25,6.16,1.6,9.7.34,16.66-3.54,18.82ZM115.23,49.54c12.78,3.65,20.42,9.24,20.42,14.37,0,4.45-5.25,8.9-14.49,12.43-1.83.68-3.88,1.37-5.93,1.94-1.48-4.68-3.31-9.47-5.59-14.37,2.28-4.91,4.22-9.7,5.59-14.37ZM106.11,17.37c1.25,0,2.28.23,3.31.8,3.76,2.17,5.13,9.01,3.54,18.82-.34,1.94-.8,3.99-1.25,6.16-4.79-1.03-9.93-1.83-15.29-2.4-3.08-4.45-6.39-8.44-9.7-11.98,6.84-6.73,13.8-11.41,19.39-11.41ZM89.34,40.3c-2.05-.11-4.22-.11-6.39-.11s-4.34,0-6.39.11c2.05-2.74,4.22-5.25,6.39-7.64,2.17,2.4,4.34,5.02,6.39,7.64ZM56.6,18.17c.91-.57,2.05-.8,3.31-.8,5.59,0,12.55,4.56,19.39,11.41-3.31,3.54-6.5,7.53-9.7,11.98-5.36.46-10.5,1.25-15.29,2.4-.57-2.05-.91-4.11-1.25-6.16-1.6-9.7-.34-16.54,3.54-18.82ZM50.66,78.29c-12.78-3.65-20.42-9.24-20.42-14.37,0-4.45,5.25-8.9,14.49-12.43,1.83-.68,3.88-1.37,5.93-1.94,1.48,4.68,3.31,9.47,5.59,14.37-2.28,4.91-4.22,9.81-5.59,14.37ZM53.06,90.84c.34-1.94.8-3.99,1.25-6.16,4.79,1.03,9.93,1.83,15.29,2.4,3.08,4.45,6.39,8.44,9.7,11.98-6.84,6.73-13.8,11.41-19.39,11.41-1.25,0-2.28-.23-3.31-.8-3.88-2.17-5.13-9.13-3.54-18.82ZM48.27,137.84c2.51-3.08,2.62-6.5,1.25-9.93s-4.22-5.02-7.76-5.13c-4.22-.11-8.56,0-12.78,0h-.8v29.55h3.42v-11.18h5.36c.68,0,1.25.23,1.6.8l6.84,10.61c.11.23.46.57.68.57h4.45c-2.74-4.22-5.36-8.21-8.1-12.32,2.4-.34,4.45-1.14,5.82-2.97ZM31.61,137.61v-11.29h1.25c2.62,0,5.36-.11,7.99.11,3.08.11,5.25,2.51,5.25,5.59s-2.51,5.48-5.59,5.59c-2.74.11-5.48,0-8.9,0ZM75.76,139.09c-1.83-7.99-9.13-10.04-14.72-7.53-4.34,1.94-6.27,5.7-6.39,10.38-.11,3.54.91,6.73,3.65,9.13,3.08,2.74,6.84,3.08,10.72,2.4,2.17-.46,4.11-1.48,5.59-3.08-.57-.8-1.14-1.6-1.71-2.28-3.19,2.74-6.73,3.65-10.61,1.83-2.51-1.25-3.76-4.34-3.99-6.62h17.68v-1.48c.11-1.03,0-1.94-.23-2.74ZM58.53,140.92c-.34-3.42,3.08-7.07,6.84-7.07,4.34-.11,7.07,2.51,7.19,7.07h-14.03ZM93.56,130.99c-1.71-.34-3.54-.46-5.25-.34-2.74.23-5.13,1.48-7.07,3.54.57.8,1.03,1.6,1.71,2.51.23-.23.46-.46.68-.57,1.83-1.71,3.99-2.62,6.62-2.4,2.05.11,3.99.8,4.56,2.85.46,1.6.34,3.31.46,5.02-.34,0-.46-.11-.57-.23-2.74-2.28-5.82-2.74-9.13-1.94-3.08.8-5.02,3.19-5.25,6.27-.23,3.54,1.37,6.16,4.45,7.42,1.94.8,4.11.8,6.16.34,1.6-.34,2.28-1.25,4.56-2.51v1.48h3.19c0-4.56.11-10.15,0-15.4,0-3.31-1.94-5.36-5.13-6.05ZM95.16,145.37c-.11.34,0,.68,0,1.03,0,2.4-.57,3.19-2.85,4.11-1.6.57-3.31.8-5.02.23-1.94-.57-3.31-2.28-3.31-4.22-.11-1.94,1.14-3.88,3.08-4.45,2.62-.91,5.02-.34,7.19,1.25.68.57,1.14,1.14.91,2.05ZM112.95,134.07c2.97-.91,5.7-.34,7.76,2.17l.34.23c.8-.68,1.48-1.37,2.4-2.17-.34-.34-.46-.57-.68-.91-3.31-3.54-9.81-3.99-13.8-1.14-5.59,4.11-5.48,12.09-2.74,16.31,2.62,3.99,6.39,5.36,10.84,4.79,2.62-.34,4.79-1.6,6.5-3.76-.8-.68-1.6-1.37-2.4-2.17-.23.23-.34.34-.46.57-3.08,3.42-8.21,3.08-10.95-.57-1.6-2.17-1.94-4.68-1.48-7.19.23-2.85,1.71-5.13,4.68-6.16h0ZM136.68,149.59c-.23.11-.34.23-.34.23-.91.68-1.83.8-2.85.46-1.03-.46-1.14-1.37-1.25-2.28v-13.01c0-.23,0,.23.11-.91h4.34v-3.42h-4.56v-5.7h-3.42v6.16h-2.97c-.23,0-.57.23-.57.46-.11.8,0,1.37,0,2.51h3.65v14.6c0,1.83.46,3.42,2.05,4.34,1.71,1.03,5.02.8,6.5-.46.23-.11.34-.57.34-.68-.34-.68-.68-1.48-1.03-2.28Z"/>
      </g>
    </g>
  </g>
</svg>