<?xml version="1.0" encoding="UTF-8"?>
<svg id="Layer_2" data-name="Layer 2" xmlns="http://www.w3.org/2000/svg" viewBox="0 0 165.9 165.9">
  <defs>
    <style>
      .cls-1 {
        fill: transparent;
      }

      .cls-1, .cls-2, .cls-3, .cls-4, .cls-5, .cls-6, .cls-7 {
        stroke-width: 0px;
      }

      .cls-2 {
        fill: #EEEEEE;
      }

      .cls-3 {
        fill: #ad2624;
      }

      .cls-4 {
        fill: #791514;
      }

      .cls-5 {
        fill: #fff;
      }

      .cls-6 {
        fill: #d82f27;
      }

      .cls-7 {
        fill: #a42122;
      }
    </style>
  </defs>
  <g id="Layer_1-2" data-name="Layer 1">
    <g>
      <rect class="cls-1" width="165.9" height="165.9" rx="14.17" ry="14.17"/>
      <g>
        <path class="cls-2" d="M41.02,115.87c0,1.77-1.48,3.45-3.45,3.45-1.48,0-2.76.39-3.94,1.28-1.28.79-2.17,1.87-2.96,3.15-1.58,2.07-2.36,4.53-2.66,5.42v12.32c0,1.87-1.58,3.45-3.55,3.45s-3.45-1.58-3.45-3.45v-25.62c0-1.87,1.58-3.35,3.45-3.35,1.97,0,3.55,1.48,3.55,3.35v.49c.39-.49.89-.99,1.38-1.28,2.17-1.38,4.93-2.56,8.18-2.56,1.97,0,3.45,1.48,3.45,3.35ZM39.15,128.68c.1-8.87,6.9-16.26,15.86-16.26,8.47,0,15.08,6.31,15.67,15.08v.3c0,.1,0,.49-.1.59-.2,1.58-1.58,2.56-3.35,2.56h-20.69c.3,1.48,1.08,3.15,2.17,4.24,1.38,1.58,3.94,2.76,6.21,2.96,2.36.2,5.12-.39,6.7-1.58,1.38-1.38,4.04-1.28,4.83-.2.89.89,1.48,2.86,0,4.24-3.15,2.96-7,4.24-11.63,4.24-8.77,0-15.67-7.39-15.67-16.16h0ZM46.15,125.52h18.33c-.69-2.56-3.94-6.4-9.56-6.9-5.52.2-8.18,4.24-8.77,6.9ZM103.59,141.39c0,1.87-1.58,3.55-3.55,3.55-1.77,0-3.15-1.28-3.45-2.76-2.46,1.68-5.62,2.76-8.87,2.76-8.77,0-15.77-7.39-15.77-16.16s7-16.26,15.77-16.26c3.15,0,6.31,1.08,8.67,2.76v-12.32c0-1.87,1.58-3.55,3.55-3.55s3.55,1.58,3.55,3.55v25.82l.1,12.61ZM87.83,119.51c-2.36,0-4.43.99-6.11,2.66-1.58,1.58-2.56,3.94-2.56,6.5s.99,4.83,2.56,6.4c1.58,1.68,3.74,2.66,6.11,2.66s4.43-.99,6.11-2.66c1.58-1.58,2.56-3.94,2.56-6.4s-.99-4.93-2.56-6.5c-1.58-1.68-3.65-2.66-6.11-2.66ZM116.01,104.34c0,1.97-1.48,3.55-3.55,3.55s-3.55-1.58-3.55-3.55v-1.38c0-1.97,1.58-3.55,3.55-3.55s3.55,1.58,3.55,3.55v1.38ZM116.01,116.06v25.32c0,1.97-1.48,3.55-3.55,3.55s-3.55-1.58-3.55-3.55v-25.32c0-2.07,1.58-3.55,3.55-3.55,2.07,0,3.55,1.48,3.55,3.55ZM120.44,135.57c1.18-1.58,3.45-1.77,4.83-.49,1.68,1.38,4.63,2.96,7.09,2.86,1.77,0,3.35-.59,4.43-1.28.89-.79,1.18-1.38,1.18-1.97,0-.3-.1-.49-.2-.69s-.3-.49-.89-.79c-.89-.69-2.86-1.38-5.22-1.77h-.1c-1.97-.39-3.94-.89-5.62-1.68-1.77-.89-3.35-1.97-4.43-3.74-.69-1.18-1.08-2.56-1.08-4.04,0-2.96,1.68-5.52,3.84-7.09,2.27-1.58,5.03-2.36,7.98-2.36,4.43,0,7.69,2.17,9.76,3.55,1.58,1.08,1.97,3.15,1.08,4.83-1.08,1.58-3.15,1.97-4.83.89-2.07-1.38-3.94-2.36-6.01-2.36-1.58,0-3.05.49-3.94,1.18-.89.59-1.08,1.18-1.08,1.48s0,.3.1.49c.1.1.3.39.69.69.89.59,2.56,1.18,4.73,1.58l.1.1h.1c2.17.39,4.14.99,6.01,1.87,1.77.79,3.55,1.97,4.63,3.84.79,1.28,1.28,2.76,1.28,4.24,0,3.15-1.77,5.81-4.04,7.49-2.36,1.58-5.22,2.56-8.47,2.56-5.03-.1-8.97-2.36-11.53-4.43-1.38-1.28-1.58-3.45-.39-4.93Z"/>
        <path class="cls-7" d="M125.27,81.48c-4.93,2.56-30.25,13.01-35.67,15.77-5.42,2.86-8.38,2.76-12.61.79-4.34-2.07-31.24-12.91-36.16-15.27-2.46-1.18-3.74-2.17-3.74-3.05v-9.26s35.08-7.69,40.79-9.66c5.72-2.07,7.69-2.07,12.42-.3,4.83,1.77,33.7,7,38.43,8.67v9.16c.1.89-.99,1.87-3.45,3.15Z"/>
        <path class="cls-6" d="M125.27,72.22c-4.93,2.56-30.25,13.01-35.67,15.77-5.42,2.86-8.38,2.76-12.61.79-4.34-2.07-31.24-12.91-36.16-15.27-4.83-2.36-4.93-3.94-.2-5.81s31.63-12.42,37.25-14.39c5.72-2.07,7.69-2.07,12.42-.3,4.83,1.77,30.05,11.82,34.78,13.5,4.93,1.77,5.12,3.15.2,5.72Z"/>
        <path class="cls-7" d="M125.27,66.4c-4.93,2.56-30.25,13.01-35.67,15.77-5.42,2.86-8.38,2.76-12.61.79-4.34-2.07-31.24-13.01-36.16-15.27-2.46-1.18-3.74-2.17-3.74-3.05v-9.26s35.08-7.69,40.79-9.66c5.72-2.07,7.69-2.07,12.42-.3,4.83,1.77,33.7,7,38.43,8.67v9.16c.1.89-.99,1.87-3.45,3.15Z"/>
        <path class="cls-6" d="M125.27,57.14c-4.93,2.56-30.25,13.01-35.67,15.77-5.42,2.86-8.38,2.76-12.61.79-4.24-2.07-31.24-12.91-36.06-15.27-4.83-2.36-4.93-3.94-.2-5.81,4.73-1.87,31.63-12.42,37.25-14.39,5.72-2.07,7.69-2.07,12.42-.3,4.83,1.77,30.05,11.82,34.78,13.5,4.83,1.68,5.03,3.15.1,5.72Z"/>
        <path class="cls-7" d="M125.27,50.73c-4.93,2.56-30.25,13.01-35.67,15.77-5.42,2.86-8.38,2.76-12.61.79-4.24-2.07-31.24-12.91-36.06-15.27-2.46-1.18-3.74-2.17-3.74-3.05v-9.26s35.08-7.69,40.79-9.66c5.72-2.07,7.69-2.07,12.42-.3,4.83,1.77,33.7,7,38.43,8.67v9.16c0,.79-1.08,1.87-3.55,3.15Z"/>
        <path class="cls-6" d="M125.27,41.47c-4.93,2.56-30.25,13.01-35.67,15.77-5.42,2.86-8.38,2.76-12.61.79-4.24-2.07-31.24-12.91-36.06-15.27s-4.93-3.94-.2-5.81c4.73-1.87,31.63-12.42,37.25-14.39,5.72-2.07,7.69-2.07,12.42-.3,4.83,1.77,30.05,11.82,34.78,13.5,4.83,1.68,5.03,3.15.1,5.72Z"/>
        <path class="cls-5" d="M95.02,32.51l-7.98.79-1.77,4.34-2.86-4.83-9.16-.79,6.8-2.46-1.97-3.74,6.4,2.46,6.01-1.97-1.68,3.94,6.21,2.27ZM84.77,53.3l-14.78-6.21,21.28-3.25-6.5,9.46Z"/>
        <ellipse class="cls-5" cx="64.28" cy="39.3" rx="11.33" ry="4.43"/>
        <path class="cls-4" d="M104.38,33.69l12.61,4.93-12.61,5.03v-9.95Z"/>
        <path class="cls-3" d="M90.49,39.21l13.89-5.52v9.95l-1.28.49-12.61-4.93Z"/>
      </g>
    </g>
  </g>
</svg>